<svg width="164" height="20" viewBox="0 0 164 20" fill="none" xmlns="http://www.w3.org/2000/svg">
<path opacity="0.38" d="M137.295 0.026569H135.14C133.604 0.026569 132.06 0.026569 130.531 0.0664225L99.7772 0.637656C94.9161 0.79707 90.0617 1.07604 85.2006 1.30188C80.7406 1.50779 63.7616 1.74691 59.3016 1.91297L39.2996 2.68347C35.8186 2.80967 19.8186 2.89602 16.3308 2.98237C14.9084 3.48635 13.5842 4.22308 12.4147 5.16103C9.47324 7.3156 6.78698 9.78407 4.40579 12.5206C3.0569 13.9803 1.85266 15.5616 0.809248 17.2433L0.0613836 18.8773C-0.156177 19.8005 0.204158 20.1526 1.14919 19.94C8.24709 19.7673 15.345 19.5349 22.4429 19.2758C26.6445 19.1363 43.3653 19.0035 47.5669 18.8374L80.6794 18.0271C85.1326 17.8477 89.5926 17.7813 94.0526 17.6883L102.449 17.509C104.754 17.4625 119.591 17.5621 121.896 17.5887C124.201 17.6152 126.512 17.5887 128.804 17.7016C130.884 17.8145 132.971 17.8809 135.052 18.0271C135.027 18.3467 135.059 18.6681 135.147 18.9769C137.069 19.2614 139.009 19.4035 140.953 19.402C142.678 19.5116 144.407 19.5249 146.134 19.4419C147.699 18.8935 149.155 18.0845 150.437 17.0506C152.533 15.4971 154.512 13.799 156.359 11.9693C158.232 10.1646 159.97 8.23116 161.56 6.18393L163.192 3.79272C163.551 3.41491 163.802 2.95192 163.922 2.44972C164.041 1.94752 164.024 1.42358 163.872 0.929915C163.307 0.850208 162.743 0.790428 162.172 0.743932L163.239 0.850208C161.295 0.637656 159.255 0.577876 157.216 0.478242L152.661 0.239121C149.941 0.0929915 147.221 0.079707 144.502 0C143.822 0 143.142 0 142.428 0C140.722 0 139.029 0.0464957 137.309 0.053138L137.295 0.026569Z" fill="#FF913F"/>
</svg>
