<svg width="135" height="77" viewBox="0 0 135 77" fill="none" xmlns="http://www.w3.org/2000/svg">
<path d="M20.903 24.3479C21.1957 22.8023 20.0376 20.9756 18.3833 20.9883C16.4871 21.2055 14.6291 21.6015 12.7966 22.1252C10.5059 22.7767 8.26613 23.607 6.07726 24.514C4.13019 25.3443 2.20857 26.213 0.414215 27.3371C-0.196631 27.9247 -0.158453 29.2021 0.706912 29.547C1.91588 29.828 3.17575 29.5215 4.37199 29.3682C4.62651 29.4065 5.22463 29.0233 5.161 29.3937C4.39744 36.3939 3.35391 43.3686 2.66671 50.3816C2.5649 50.9564 1.76317 51.148 1.77589 51.7612C1.91588 52.4382 2.03041 53.3963 2.81942 53.6134C4.07929 53.8561 5.32643 53.3452 6.5863 53.3579C8.73699 53.1536 10.8368 52.5659 12.7838 51.6334L12.8093 51.6207C17.0979 49.3086 19.6686 44.4033 19.6177 39.5619C19.6177 38.0035 19.974 36.279 19.1214 34.8738C18.4851 33.8136 17.1616 33.6475 16.2708 32.8938C16.2071 32.2423 16.8943 31.923 17.0979 31.3737C18.5996 29.2021 20.4703 27.056 20.903 24.3479ZM16.7543 39.3831C16.9707 40.3028 16.6144 41.2225 16.4107 42.1167C15.7363 44.3139 14.4255 46.2683 12.7966 47.8651C12.4275 48.21 12.0585 48.5421 11.664 48.8487C10.3914 49.5896 8.81334 49.679 7.40076 49.3724C6.89173 49.2064 6.73901 48.606 6.85355 48.1206C7.06989 47.1369 7.12079 46.1406 7.33713 45.1442C7.64256 43.458 7.99888 41.7974 8.36794 40.124C9.83142 39.3575 11.2185 38.3228 12.7711 37.7352C13.4074 37.5053 14.0692 37.3392 14.7691 37.3009C15.8381 37.4286 16.4616 38.4633 16.7543 39.3831ZM16.7798 26.098C16.3726 26.7878 15.8635 27.401 15.4563 28.078C14.6291 29.2787 13.7383 30.454 12.7966 31.5781C11.524 33.0727 10.1623 34.4778 8.67336 35.7424C8.82607 32.9321 8.30431 29.9941 9.33511 27.3115C9.85687 26.3535 11.0658 26.3024 12.0203 26.1108C12.2748 26.0597 12.542 25.983 12.7966 25.9192C13.9801 25.5743 15.1381 25.1144 16.3853 25.1144C16.8689 25.0761 17.0598 25.7531 16.7798 26.098Z" fill="white"/>
<path d="M28.3604 28.1543C28.3477 28.1543 28.3223 28.1543 28.3095 28.1543C26.757 28.6397 25.039 28.8696 23.7155 29.9043C23.3591 30.1726 23.1682 30.7347 23.5755 31.054C23.9318 31.3478 24.3772 31.4245 24.8353 31.4245C25.1662 31.4245 25.5098 31.3861 25.828 31.3734C25.8534 31.7438 25.7007 32.2931 25.6498 32.7402C24.9626 37.7349 23.8554 42.6912 23.4737 47.7242C23.4737 48.6312 23.3209 49.6787 23.9318 50.4196C24.1736 50.5856 24.4281 50.6495 24.6954 50.6495C25.3826 50.6495 26.0825 50.1641 26.4006 49.5637C27.406 47.9542 27.4951 45.9614 28.3732 44.288C30.282 39.4977 33.1327 34.9629 37.2559 31.7949C37.9813 31.1945 38.9612 30.8369 39.4702 29.9938C39.6738 29.2273 38.9103 28.5503 38.2103 28.4609C38.1085 28.4353 37.994 28.4353 37.8922 28.4353C37.345 28.4353 36.8232 28.6908 36.3651 28.9718C33.4381 30.492 31.4274 33.1873 29.2003 35.5377C29.1367 35.5888 29.0731 35.6016 29.0095 35.6016C28.7422 35.6016 28.5259 35.2695 28.5895 35.0012C28.475 32.9701 29.5694 30.9901 29.0985 28.9591C28.9967 28.5886 28.8058 28.1543 28.3604 28.1543Z" fill="white"/>
<path d="M57.9993 34.5283C57.8593 34.5283 57.7193 34.5794 57.6302 34.6816C56.1286 35.4991 55.2378 37.0831 53.7997 37.9773C52.4889 39.0759 51.2163 40.3278 49.7529 41.2219C48.9893 41.6818 48.1748 42.0395 47.2713 42.2056C46.9786 42.2694 46.6859 42.295 46.3932 42.295C45.4006 42.295 44.3952 41.9373 43.708 41.1964C42.4482 39.9573 41.9519 37.824 42.8427 36.24C43.2626 35.5502 44.0516 35.2053 44.8152 35.1031C46.4696 34.6816 48.1239 34.2473 49.7529 33.7235C51.5854 33.1232 53.367 32.395 55.0341 31.4242C56.1031 30.7472 57.363 29.9041 57.5157 28.5373C57.8084 26.0718 55.6704 23.6064 53.1889 23.6064C53.0998 23.6064 53.0107 23.6064 52.9216 23.6192C52.8962 23.6192 52.858 23.6192 52.8325 23.6192C52.7689 23.6192 52.7053 23.6192 52.6417 23.6192C51.6618 23.6448 50.6946 23.7853 49.7529 24.0791C48.4166 24.4879 47.1568 25.1777 46.1387 26.174C43.8226 28.2051 41.8628 30.6961 40.552 33.4936C39.3939 36.2528 39.0503 39.5358 40.3611 42.295C41.0356 43.7768 42.4609 44.837 44.0516 45.1053C44.4334 45.1819 44.8025 45.2075 45.1842 45.2075C46.7877 45.2075 48.3403 44.6071 49.7529 43.8406C49.9056 43.764 50.0583 43.6746 50.1983 43.5852C52.3999 42.295 54.2451 40.5194 55.874 38.5905C56.8794 37.4791 58.0884 36.3295 58.3429 34.7838C58.3047 34.605 58.1647 34.5283 57.9993 34.5283ZM44.9297 30.9132C46.2787 29.2654 47.5894 27.477 49.5365 26.4934C49.6129 26.4551 49.6892 26.4167 49.7656 26.3784C50.4401 26.0591 51.1909 25.8547 51.9417 25.8164C53.367 25.8291 54.9196 26.8511 55.0341 28.3584C54.9832 29.2782 54.0288 29.738 53.2652 29.9935C52.0817 30.3639 50.9237 30.8366 49.7529 31.2837C48.1367 31.8841 46.495 32.4078 44.7643 32.4972C44.2552 32.0757 44.497 31.2965 44.9297 30.9132Z" fill="white"/>
<path d="M78.8441 30.9771C78.5896 30.9771 78.3733 31.2965 78.1569 31.3986C77.088 32.2928 76.2353 33.417 75.09 34.209C73.6774 35.3969 72.303 36.7638 70.6868 37.6707C70.0632 38.0156 69.4015 38.2967 68.7016 38.4883C68.2943 38.616 67.8616 38.6799 67.429 38.6799C66.3345 38.6799 65.2528 38.2711 64.4765 37.4919C63.0131 36.1123 62.5295 33.583 63.7384 31.8841C64.2602 31.1943 65.1001 30.8749 65.9146 30.7344C67.4926 30.3128 69.1088 29.9169 70.6868 29.4314C72.9011 28.7416 75.0263 27.8602 76.8971 26.4551C77.6606 25.8802 78.3478 24.9988 78.1951 23.9897C78.1569 21.8947 76.2989 19.9658 74.1864 19.9658C74.1483 19.9658 74.1101 19.9658 74.0719 19.9658C73.9828 19.9658 73.8937 19.9658 73.8174 19.9658C72.7611 19.9658 71.6922 20.1447 70.6868 20.4768C69.1215 21.0005 67.6962 21.9203 66.589 23.1593C64.3493 25.4076 62.2495 27.9624 61.3587 31.0665C60.6206 33.6086 60.5951 36.5722 62.0713 38.8587C63.0131 40.1872 64.6165 40.9026 66.2073 40.9026C66.6909 40.9026 67.1744 40.8387 67.6326 40.711C68.7143 40.4683 69.7324 40.0467 70.6868 39.523C72.3539 38.6032 73.8428 37.3386 75.1791 35.9973C76.2608 34.8988 77.3043 33.7235 78.2715 32.51C78.5769 32.0629 78.9332 31.5647 78.9587 31.0282C78.9205 30.9771 78.8823 30.9771 78.8441 30.9771ZM65.3801 27.0555C66.5381 25.7269 67.5562 24.2579 68.9561 23.1593C69.4906 22.725 70.0632 22.3546 70.6868 22.0735C71.4122 21.7414 72.2012 21.537 73.0156 21.5115C73.0284 21.5115 73.0284 21.5115 73.0411 21.5115C74.5937 21.5115 76.2353 22.6484 76.3753 24.2835C76.4135 25.1777 75.5481 25.7269 74.8355 26.0974C73.4738 26.6978 72.0994 27.2726 70.6995 27.7325C70.3941 27.8347 70.0887 27.9241 69.7833 28.0135C68.4089 28.4223 66.9963 28.8055 65.571 28.9843C64.8329 28.6394 64.8965 27.5792 65.3801 27.0555Z" fill="white"/>
<path d="M94.5989 31.1047C93.4026 32.1394 92.1555 33.2379 90.7556 34.0044C89.9157 34.4515 89.0376 34.7964 88.0705 34.9241C87.8414 34.9624 87.5996 34.988 87.3705 34.988C86.0216 34.988 84.6981 34.3493 83.8964 33.2507C82.7638 31.7945 82.3692 29.6229 83.2982 27.9622C84.0491 26.787 85.4871 26.4166 86.7852 26.2249C88.1086 25.8673 89.4449 25.5096 90.7556 25.088C93.059 24.3599 95.2988 23.4146 97.2077 21.8817C98.2003 21.0003 98.1494 19.3908 97.5131 18.305C96.8641 17.1042 95.6297 16.1973 94.2553 16.1973C94.1535 16.1973 94.0389 16.21 93.9371 16.21C92.8554 16.2228 91.7737 16.3889 90.7429 16.7338C89.5594 17.1298 88.465 17.7685 87.5742 18.6371C85.4362 20.5277 83.68 22.8526 82.3438 25.3691C81.2112 27.9367 80.8167 30.9897 81.8602 33.6467C82.522 35.4223 84.3799 36.5337 86.2252 36.5337C86.5943 36.5337 86.976 36.4826 87.3324 36.3931C88.5413 36.1632 89.6739 35.7033 90.7302 35.0902C92.41 34.1321 93.899 32.8164 95.2479 31.4751C96.4569 30.2105 97.6913 28.9458 98.5948 27.4385C97.1568 28.5498 96.0878 30.0827 94.5989 31.1047ZM85.4998 22.6099C86.9379 20.7065 88.5286 18.701 90.7556 17.7302C90.9211 17.6663 91.0738 17.5896 91.2392 17.5385C91.8119 17.3469 92.4227 17.2192 93.0336 17.2064C93.0463 17.2064 93.0718 17.2064 93.0845 17.2064C94.917 17.2064 96.7496 18.7265 96.7496 20.6427C96.3042 21.9201 94.9043 22.3799 93.7717 22.8781C92.7918 23.3252 91.7864 23.7084 90.7684 24.0406C89.254 24.526 87.7014 24.9092 86.1361 25.2286C86.0216 25.2541 85.9071 25.2797 85.7925 25.2797C85.5507 25.2797 85.3089 25.1902 85.1435 24.9859C84.5072 24.3088 84.7235 23.0953 85.4998 22.6099Z" fill="white"/>
<path d="M109.374 0L109.31 0.0383223L109.272 0.0638706C108.534 0.49819 107.745 0.894188 107.109 1.46902C107.516 1.31573 107.91 1.16244 108.318 1.0347C108.152 2.75921 107.656 4.44539 107.414 6.15712C107.07 7.76666 106.612 9.44007 105.582 10.7558C104.411 11.9438 102.629 11.9693 101.178 12.5697C100.428 12.9402 99.4476 13.234 99.0913 14.0515C99.1931 14.1026 99.2949 14.1282 99.3967 14.1282C99.6385 14.1282 99.9185 14.0132 100.148 13.9749C101.344 13.6044 102.489 12.7741 103.762 12.7741C103.94 12.7741 104.118 12.7869 104.296 12.8252C105.06 12.9657 105.492 13.7449 105.467 14.4858C105.454 15.4056 105.162 16.2998 105.111 17.2323C104.423 22.4952 103.609 27.7454 103.075 33.0211C103.138 33.1488 103.291 33.2127 103.444 33.2127C103.634 33.2127 103.825 33.1105 103.787 32.8806C104.958 26.1486 105.34 19.2761 106.918 12.608C107.503 11.0752 109.094 10.2704 110.545 9.73387C111.385 9.3762 112.492 9.26123 113.001 8.40536C112.924 8.39259 112.848 8.39259 112.772 8.39259C112.212 8.39259 111.665 8.5842 111.13 8.78859C110.583 8.9802 110.048 9.18459 109.488 9.18459C109.285 9.18459 109.081 9.15904 108.878 9.09517C108.076 8.75027 107.923 7.67724 108.152 6.91079C108.521 5.16074 108.89 3.41069 109.234 1.64786C109.323 1.09857 109.374 0.549287 109.374 0Z" fill="white"/>
<path d="M117.76 0.40918L117.722 0.434728C117.009 0.958467 116.195 1.45666 115.673 2.13368C116.22 1.99317 116.691 1.63549 117.226 1.46943C116.551 4.50967 115.902 7.54991 115.508 10.6412C114.528 17.2966 113.51 23.9774 112.657 30.6455C113.052 30.6327 113.141 30.1729 113.217 29.8663C114.032 27.4392 114.833 24.9993 115.737 22.6106C116.78 19.9919 118.308 17.552 120.344 15.5976C121.464 14.4352 122.52 13.1194 123.996 12.4041C124.174 12.3402 124.352 12.3147 124.543 12.3147C125.358 12.3147 126.21 12.8767 126.236 13.7326C126.465 15.7381 125.905 17.7053 125.676 19.6725C125.23 22.2018 124.556 24.7055 124.518 27.2859C124.721 26.264 124.9 25.2293 125.167 24.2201C125.994 20.6051 126.948 16.99 127.279 13.2855C127.305 12.5957 127.381 11.842 127.152 11.1905C126.859 10.6796 126.261 10.373 125.676 10.373C125.256 10.373 124.849 10.5263 124.556 10.8712C122.164 12.6212 120.382 15.1122 117.9 16.7473C117.773 16.7728 117.659 16.7984 117.544 16.7984C116.5 16.7984 115.622 15.6231 115.864 14.5884C116.131 13.0428 116.284 11.4843 116.602 9.95144C117.162 6.80901 117.875 3.64103 117.76 0.40918Z" fill="white"/>
<path d="M134.38 4.95605L134.342 4.96883C133.4 5.24986 132.675 6.00353 132.128 6.78275C131.631 7.72804 131.873 8.83938 131.708 9.84854C131.504 12.0457 130.906 14.2301 131.033 16.4528C131.135 16.3633 131.301 15.7757 131.415 15.4819C131.886 14.0512 132.675 12.761 133.12 11.3176C133.693 9.65693 134.151 7.95797 134.698 6.28456C134.507 5.86302 134.647 5.35205 134.38 4.95605ZM130.855 22.3672C130.842 22.3672 130.83 22.3672 130.804 22.3672C129.366 22.431 127.992 23.7468 128.119 25.2413C128.361 25.4202 128.628 25.4968 128.908 25.4968C129.646 25.4968 130.397 24.9348 130.562 24.1939C130.791 23.619 131.135 23.0314 131.046 22.3927C130.982 22.3799 130.919 22.3672 130.855 22.3672Z" fill="white"/>
<path d="M47.4461 67.5656C47.2222 67.7154 46.9983 68.0151 46.737 68.4834V67.4907H45.748V74.0278H46.849V70.6C46.849 70.1317 46.905 69.7009 47.0356 69.3076C47.1102 69.0453 47.2595 68.8393 47.4461 68.7082C47.6327 68.5583 47.8567 68.4834 48.0992 68.4834C48.3791 68.4834 48.6404 68.5583 48.9016 68.7269L49.2748 67.6967C48.883 67.4532 48.5098 67.3408 48.1366 67.3408C47.894 67.3408 47.6701 67.4157 47.4461 67.5656Z" fill="white"/>
<path d="M53.734 67.3408H53.7154C52.8197 67.3408 52.1106 67.6592 51.5321 68.2586C50.9723 68.8768 50.6924 69.7197 50.6924 70.8248C50.6924 71.8924 50.9723 72.7166 51.5321 73.2973C52.0732 73.8779 52.801 74.1589 53.7154 74.1776H53.79C54.5551 74.1776 55.1709 73.9903 55.656 73.6157C56.1412 73.2411 56.4771 72.7353 56.6637 72.061L55.5254 71.9299C55.3575 72.3982 55.1335 72.7353 54.8536 72.9601C54.5737 73.1661 54.2192 73.2785 53.8087 73.2785H53.7154C53.2115 73.2598 52.7823 73.0725 52.4465 72.6979C52.0732 72.3233 51.8866 71.7613 51.8307 71.0496H53.7154H56.701C56.701 70.9184 56.701 70.8248 56.701 70.7499C56.701 69.6635 56.4211 68.8393 55.8613 68.2399C55.3201 67.6405 54.611 67.3408 53.734 67.3408ZM53.7154 70.1317H51.9053C51.9426 69.5698 52.1292 69.1015 52.4838 68.7644C52.8197 68.4272 53.2302 68.2586 53.734 68.2586H53.7713C54.3311 68.2586 54.779 68.4834 55.1335 68.8955C55.3575 69.1765 55.5067 69.5885 55.5441 70.1317H53.7154Z" fill="white"/>
<path d="M32.9464 67.3408H32.9278C32.0321 67.3408 31.3043 67.6592 30.7445 68.2586C30.1847 68.8768 29.9048 69.7197 29.9048 70.8248C29.9048 71.8924 30.1847 72.7166 30.7445 73.2973C31.2857 73.8779 32.0134 74.1589 32.9278 74.1776H33.0024C33.7675 74.1776 34.3833 73.9903 34.8684 73.6157C35.3536 73.2411 35.6895 72.7353 35.8761 72.061L34.7378 71.9299C34.5699 72.3982 34.3459 72.7353 34.0474 72.9601C33.7675 73.1661 33.4129 73.2785 33.0024 73.2785H32.9091C32.4053 73.2598 31.9761 73.0725 31.6402 72.6979C31.267 72.3233 31.0804 71.7613 31.0244 71.0496H32.9091H35.8948C35.8948 70.9184 35.8948 70.8248 35.8948 70.7499C35.8948 69.6635 35.6149 68.8393 35.055 68.2399C34.5326 67.6405 33.8235 67.3408 32.9464 67.3408ZM32.9278 70.1317H31.099C31.1364 69.5698 31.323 69.1015 31.6775 68.7644C32.0134 68.4272 32.4239 68.2586 32.9278 68.2586H32.9651C33.5249 68.2586 33.9727 68.4834 34.3273 68.8955C34.5512 69.1765 34.7005 69.5885 34.7378 70.1317H32.9278Z" fill="white"/>
<path d="M4.04164 67.3408H4.02298C3.12728 67.3408 2.41819 67.6592 1.83972 68.2586C1.27991 68.858 1 69.7197 1 70.8248C1 71.8924 1.27991 72.7166 1.83972 73.2973C2.38087 73.8779 3.10862 74.1589 4.02298 74.1776H4.11628C4.86269 74.1776 5.49714 73.9903 5.98231 73.6157C6.46748 73.2411 6.80337 72.7353 6.98997 72.061L5.83303 71.9299C5.66509 72.3982 5.44116 72.7353 5.1426 72.9414C4.86269 73.1661 4.52681 73.2785 4.11628 73.2785H4.02298C3.51915 73.2411 3.08996 73.0538 2.75407 72.6979C2.38087 72.3233 2.19426 71.7613 2.13828 71.0496H4.02298H7.00863C7.00863 70.9184 7.00863 70.8248 7.00863 70.7499C7.00863 69.6635 6.72873 68.8393 6.16892 68.2399C5.62777 67.6405 4.91867 67.3408 4.04164 67.3408ZM4.02298 70.1317H2.21292C2.25024 69.5698 2.43685 69.1015 2.79139 68.7644C3.12728 68.4272 3.53781 68.2586 4.04164 68.2586H4.07896C4.63877 68.2586 5.08662 68.4834 5.44116 68.8955C5.66509 69.1765 5.79571 69.5885 5.85169 70.1317H4.02298Z" fill="white"/>
<path d="M26.6581 67.5656C26.4341 67.7154 26.2102 68.0151 25.949 68.4834V67.4907H24.96V74.0278H26.0609V70.6C26.0609 70.1317 26.1169 69.7009 26.2475 69.3076C26.3222 69.0453 26.4714 68.8393 26.6581 68.7082C26.8447 68.5583 27.0686 68.4834 27.3112 68.4834C27.5911 68.4834 27.8523 68.5583 28.1136 68.7269L28.4868 67.6967C28.0949 67.4532 27.7217 67.3408 27.3485 67.3408C27.1059 67.3408 26.8633 67.4157 26.6581 67.5656Z" fill="white"/>
<path d="M13.1669 72.8665C12.887 73.1287 12.5138 73.2785 12.0846 73.2785C11.5434 73.2785 11.0956 73.0725 10.7597 72.6791C10.4425 72.2671 10.2745 71.6302 10.2745 70.7499C10.2745 69.8882 10.4425 69.2514 10.797 68.858C11.1515 68.4647 11.5994 68.2586 12.1592 68.2586C12.5324 68.2586 12.8496 68.371 13.1109 68.5958C13.3721 68.8206 13.5587 69.139 13.652 69.5885L14.7343 69.42C14.5851 68.7456 14.2865 68.2399 13.8386 67.884C13.3908 67.5281 12.8123 67.3408 12.1032 67.3408C11.5434 67.3408 11.0209 67.4719 10.5544 67.7342C10.0692 67.9964 9.7147 68.4085 9.49078 68.933C9.24819 69.4574 9.13623 70.0755 9.13623 70.7873C9.13623 71.8737 9.41614 72.7166 9.95729 73.2973C10.4984 73.8967 11.2075 74.1776 12.1032 74.1776C12.8123 74.1776 13.4095 73.9716 13.9133 73.5408C14.3984 73.1287 14.697 72.5293 14.809 71.7801L13.7267 71.6302C13.652 72.1921 13.4654 72.6042 13.1669 72.8665Z" fill="white"/>
<path d="M19.511 67.3408C18.7086 67.3408 18.0182 67.5843 17.4583 68.0713C16.7866 68.652 16.4507 69.5511 16.4507 70.7686C16.4507 71.8737 16.7306 72.7166 17.2904 73.2973C17.8502 73.8967 18.5966 74.1776 19.4923 74.1776C20.0521 74.1776 20.5933 74.0465 21.0598 73.7843C21.545 73.522 21.8995 73.1474 22.1608 72.6604C22.422 72.1734 22.534 71.5178 22.534 70.6749C22.534 69.6447 22.2541 68.8206 21.6756 68.2399C21.1344 67.6405 20.4067 67.3408 19.511 67.3408ZM20.8918 72.6417C20.5186 73.0538 20.0708 73.2785 19.5296 73.2785C18.9885 73.2785 18.522 73.0725 18.1674 72.6417C17.7942 72.2296 17.6263 71.5927 17.6263 70.7686C17.6263 69.9257 17.8129 69.3076 18.1674 68.8955C18.5406 68.4834 18.9885 68.2774 19.5296 68.2774C20.0708 68.2774 20.5186 68.4834 20.8918 68.8955C21.2651 69.3076 21.433 69.9257 21.433 70.7311C21.433 71.5927 21.2464 72.2296 20.8918 72.6417Z" fill="white"/>
<path d="M42.0717 72.8665C41.7731 73.1287 41.4185 73.2598 40.9894 73.2598C40.4482 73.2598 40.019 73.0538 39.6831 72.6604C39.3472 72.2671 39.1793 71.6115 39.1793 70.7499C39.1793 69.8882 39.3472 69.2514 39.7018 68.858C40.0563 68.4647 40.5042 68.2586 41.064 68.2586C41.4372 68.2586 41.7544 68.371 42.0157 68.5958C42.2769 68.8206 42.4635 69.139 42.5568 69.5885L43.6391 69.42C43.4712 68.7456 43.1913 68.2399 42.7434 67.884C42.2956 67.5281 41.7171 67.3408 41.008 67.3408C40.4482 67.3408 39.9257 67.4719 39.4592 67.7342C38.974 67.9964 38.6195 68.3898 38.3956 68.933C38.1716 69.4574 38.041 70.0755 38.041 70.7873C38.041 71.8737 38.3209 72.7166 38.8621 73.2973C39.4032 73.8779 40.1123 74.1776 41.008 74.1776C41.7171 74.1776 42.3142 73.9716 42.7994 73.5408C43.2846 73.11 43.6018 72.5293 43.7138 71.7801L42.6315 71.6302C42.5382 72.1921 42.3702 72.6042 42.0717 72.8665Z" fill="white"/>
<path d="M115.295 67.7716C114.866 67.4907 114.38 67.3408 113.821 67.3408H113.69C113.317 67.3596 113 67.4345 112.738 67.5843C112.44 67.7529 112.178 67.9964 111.936 68.3336V67.4907H110.928V76.5377H112.029V73.3535C112.216 73.597 112.458 73.7843 112.757 73.9529C113.037 74.1027 113.354 74.1776 113.69 74.1776H113.746C114.25 74.1776 114.735 74.0278 115.183 73.7468C115.631 73.4658 115.985 73.0538 116.228 72.5106C116.47 71.9674 116.582 71.368 116.582 70.6937C116.582 70.0755 116.47 69.4949 116.246 68.9704C116.041 68.4647 115.724 68.0526 115.295 67.7716ZM114.94 72.6417C114.604 73.0538 114.175 73.2598 113.709 73.2785H113.69C113.205 73.2785 112.794 73.0725 112.458 72.6791C112.122 72.2671 111.955 71.6489 111.955 70.806C111.955 69.9632 112.141 69.3263 112.496 68.8768C112.85 68.4459 113.261 68.2212 113.709 68.2212H113.746C114.212 68.2212 114.623 68.4272 114.978 68.8393C115.313 69.2514 115.5 69.8695 115.5 70.7124C115.463 71.574 115.295 72.2296 114.94 72.6417Z" fill="white"/>
<path d="M108.726 67.4912H107.401L106.3 69.0459C106.151 69.2519 105.983 69.4954 105.796 69.7764C105.684 69.5703 105.535 69.3268 105.349 69.0459L104.341 67.5099H102.96L105.162 70.6567L102.773 74.0658H104.117L105.834 71.4809L106.188 72.0241L107.532 74.0658H108.894L106.468 70.6006L108.726 67.4912Z" fill="white"/>
<path d="M121.714 67.3408H121.695C120.8 67.3408 120.072 67.6592 119.512 68.2586C118.952 68.8768 118.672 69.7197 118.672 70.8248C118.672 71.8924 118.952 72.7166 119.512 73.2973C120.053 73.8779 120.781 74.1589 121.695 74.1776H121.77C122.516 74.1776 123.151 73.9903 123.636 73.6157C124.121 73.2411 124.457 72.7353 124.644 72.061L123.487 71.9299C123.319 72.3982 123.095 72.7353 122.796 72.9601C122.516 73.1661 122.162 73.2785 121.751 73.2785H121.658C121.154 73.2598 120.725 73.0725 120.389 72.6979C120.016 72.3233 119.829 71.7613 119.773 71.0496H121.658H124.644C124.644 70.9184 124.644 70.8248 124.644 70.7499C124.644 69.6635 124.364 68.8393 123.804 68.2399C123.3 67.6405 122.572 67.3408 121.714 67.3408ZM121.695 70.1317H119.867C119.904 69.5698 120.091 69.1015 120.445 68.7644C120.781 68.4272 121.192 68.2586 121.695 68.2586H121.733C122.292 68.2586 122.74 68.4834 123.095 68.8955C123.319 69.1765 123.468 69.5885 123.505 70.1317H121.695Z" fill="white"/>
<path d="M64.4448 71.2929V69.8131C64.4448 69.3261 64.4262 68.989 64.3889 68.8017C64.3142 68.502 64.2022 68.2397 64.053 68.0524C63.885 67.8464 63.6424 67.6965 63.2879 67.5654C62.9333 67.4343 62.4855 67.3594 61.9257 67.3594C61.8324 67.3594 61.7391 67.3594 61.6458 67.3594C61.1979 67.3781 60.7874 67.453 60.4329 67.5841C60.0037 67.734 59.6864 67.9588 59.4625 68.2397C59.2386 68.5207 59.0706 68.8953 58.9773 69.3636L60.0596 69.5134C60.1716 69.0452 60.3582 68.7267 60.6008 68.5394C60.8247 68.3708 61.1793 68.2772 61.6458 68.2585H61.7577C62.3176 68.2585 62.7281 68.3896 63.008 68.6331C63.2132 68.8204 63.3252 69.1388 63.3252 69.5884C63.3252 69.6258 63.3252 69.7195 63.3252 69.8693C62.952 70.0004 62.3922 70.1128 61.6458 70.2065C61.5525 70.2252 61.4592 70.2252 61.3472 70.2439C60.918 70.3001 60.5821 70.3563 60.3582 70.4125C60.0596 70.4874 59.7984 70.6186 59.5558 70.7871C59.3132 70.9557 59.1266 71.1618 58.9773 71.424C58.8281 71.6862 58.7534 71.9859 58.7534 72.3043C58.7534 72.8475 58.94 73.2971 59.3319 73.653C59.7238 74.0089 60.2649 74.1774 60.9927 74.1774C61.2166 74.1774 61.4219 74.1587 61.6271 74.1213C61.8324 74.0838 62.0376 74.0276 62.2242 73.9527C62.5975 73.8028 62.9893 73.5593 63.3998 73.2034C63.4372 73.5031 63.5118 73.7841 63.6238 74.0089H64.7807C64.6501 73.7654 64.5568 73.5031 64.5008 73.2222C64.4635 72.9787 64.4448 72.3231 64.4448 71.2929ZM63.3252 71.1618C63.3252 71.6488 63.2692 72.0234 63.1386 72.2669C62.9893 72.5853 62.7467 72.8475 62.4108 73.0349C62.1869 73.166 61.9257 73.2596 61.6458 73.2971C61.5338 73.3158 61.4032 73.3158 61.2726 73.3158C60.8434 73.3158 60.5075 73.2222 60.3022 73.0161C60.0783 72.8288 59.9663 72.5666 59.9663 72.2856C59.9663 72.0983 60.0223 71.911 60.1156 71.7612C60.2089 71.5926 60.3582 71.4802 60.5448 71.4053C60.7314 71.3303 61.0486 71.2554 61.5152 71.1805L61.6458 71.1618C62.3922 71.0494 62.952 70.9183 63.3252 70.7684V71.1618Z" fill="white"/>
<path d="M98.108 67.3408H98.0894C97.1937 67.3408 96.4659 67.6592 95.9061 68.2586C95.3463 68.8768 95.0664 69.7197 95.0664 70.8248C95.0664 71.8924 95.3463 72.7166 95.9061 73.2973C96.4473 73.8779 97.175 74.1589 98.0894 74.1776H98.164C98.9291 74.1776 99.5449 73.9903 100.03 73.6157C100.515 73.2411 100.851 72.7353 101.038 72.061L99.8994 71.9299C99.7315 72.3982 99.5076 72.7353 99.2277 72.9601C98.9478 73.1661 98.5932 73.2785 98.1827 73.2785H98.0894C97.5855 73.2598 97.1564 73.0725 96.8205 72.6979C96.4473 72.3233 96.2607 71.7613 96.2047 71.0496H98.0894H101.075C101.075 70.9184 101.075 70.8248 101.075 70.7499C101.075 69.6635 100.795 68.8393 100.235 68.2399C99.6942 67.6405 98.9851 67.3408 98.108 67.3408ZM98.0894 70.1317H96.2793C96.3167 69.5698 96.5032 69.1015 96.8578 68.7644C97.1937 68.4272 97.6042 68.2586 98.108 68.2586H98.1454C98.7052 68.2586 99.153 68.4834 99.5076 68.8955C99.7315 69.1765 99.8808 69.5885 99.9181 70.1317H98.0894Z" fill="white"/>
<path d="M128.823 67.5656C128.599 67.7154 128.375 68.0151 128.114 68.4834V67.4907H127.125V74.0278H128.226V70.6C128.226 70.1317 128.282 69.7009 128.413 69.3076C128.487 69.0453 128.637 68.8393 128.823 68.7082C129.01 68.5583 129.234 68.4834 129.476 68.4834C129.756 68.4834 130.017 68.5583 130.279 68.7269L130.652 67.6967C130.26 67.4532 129.887 67.3408 129.514 67.3408C129.271 67.3408 129.028 67.4157 128.823 67.5656Z" fill="white"/>
<path d="M134.851 73.0356C134.645 73.0731 134.477 73.0731 134.365 73.0731C134.197 73.0731 134.067 73.0356 133.992 72.9981C133.899 72.9419 133.843 72.867 133.806 72.7734C133.75 72.6984 133.731 72.4924 133.731 72.174V68.3529H134.832V67.4912H133.731V65.2061L132.63 65.8804V67.51H131.828V68.3716H132.63V72.1178C132.63 72.7734 132.686 73.2229 132.761 73.4289C132.854 73.635 133.003 73.8036 133.227 73.9347C133.451 74.0658 133.75 74.122 134.16 74.122C134.403 74.122 134.683 74.0845 135 74.0283L134.851 73.0356Z" fill="white"/>
<path d="M69.1852 73.0918C69.0172 73.0918 68.8866 73.0543 68.812 73.0169C68.7187 72.9607 68.6627 72.8857 68.6254 72.7921C68.588 72.6984 68.5694 72.4924 68.5694 72.174V68.3529H69.689V67.4912H68.5694V65.2061L67.4684 65.8804V67.51H66.666V68.3716H67.4684V72.1178C67.4684 72.7734 67.5057 73.2229 67.599 73.4289C67.6923 73.635 67.8416 73.8036 68.0655 73.9347C68.2895 74.0658 68.588 74.122 68.9986 74.122C69.2411 74.122 69.521 74.0845 69.8383 74.0283L69.6703 73.0356C69.4837 73.0731 69.3158 73.0918 69.1852 73.0918Z" fill="white"/>
<path d="M72.9725 67.4912H71.8716V74.0283H72.9725V67.4912Z" fill="white"/>
<path d="M88.7596 68.1088C88.5917 67.884 88.3491 67.6967 88.0132 67.5469C87.6773 67.397 87.3228 67.3408 86.9309 67.3408C86.0352 67.3408 85.3448 67.6967 84.8596 68.4272V67.4907H83.8706V74.0278H84.9716V70.4689C84.9716 69.626 85.1395 69.0641 85.4754 68.7644C85.8113 68.4647 86.2218 68.3148 86.6883 68.3148C86.9869 68.3148 87.2481 68.3898 87.4534 68.5209C87.6773 68.652 87.8266 68.8393 87.9012 69.0453C87.9945 69.2701 88.0319 69.6073 88.0319 70.0568V74.0465H89.1328V70.0193C89.1328 69.5136 89.1142 69.139 89.0768 68.933C89.0395 68.6145 88.9276 68.3336 88.7596 68.1088Z" fill="white"/>
<path d="M72.9725 65H71.8716V66.2737H72.9725V65Z" fill="white"/>
<path d="M78.4216 67.3408C77.6192 67.3408 76.9288 67.5843 76.369 68.0713C75.6972 68.652 75.3613 69.5511 75.3613 70.7686C75.3613 71.8737 75.6412 72.7166 76.201 73.2973C76.7609 73.8967 77.5073 74.1776 78.403 74.1776C78.9628 74.1776 79.5039 74.0465 79.9704 73.7843C80.4556 73.522 80.8102 73.1474 81.0714 72.6604C81.3327 72.1734 81.4446 71.5178 81.4446 70.6749C81.4446 69.6447 81.1647 68.8206 80.5862 68.2399C80.0451 67.6405 79.3173 67.3408 78.4216 67.3408ZM79.7838 72.6417C79.4106 73.0538 78.9628 73.2785 78.4216 73.2785C77.8805 73.2785 77.414 73.0725 77.0594 72.6417C76.6862 72.2296 76.5183 71.5927 76.5183 70.7686C76.5183 69.9257 76.7049 69.3076 77.0594 68.8955C77.4326 68.4834 77.8805 68.2774 78.4216 68.2774C78.9628 68.2774 79.4106 68.4834 79.7838 68.8955C80.1571 69.3076 80.325 69.9257 80.325 70.7311C80.325 71.5927 80.1571 72.2296 79.7838 72.6417Z" fill="white"/>
<path d="M130.41 32.459C130.257 32.4718 130.091 32.4845 129.939 32.4973C119.313 33.2765 108.737 35.0138 98.5057 37.888C92.219 39.6125 86.0978 41.8352 80.0021 44.109C78.2459 44.7094 76.5025 45.4375 74.6954 45.8718C74.3645 45.9357 74.0209 45.974 73.6773 45.974C73.5246 45.974 73.3719 45.9612 73.2065 45.9484C72.8501 45.1437 73.0792 44.1217 72.3538 43.4958C71.603 42.7038 70.5086 42.4483 69.4268 42.4483C69.0451 42.4483 68.6633 42.4867 68.2942 42.525C64.2728 42.9338 60.455 44.3261 56.5991 45.4503C45.4002 48.9376 34.2778 52.8209 22.6971 55.0308C16.2705 56.2955 9.74212 57.0875 3.20098 57.4962C2.39924 57.6112 1.39389 57.5984 0.8594 58.2627C0.477622 58.8631 1.03756 59.6806 1.67386 59.8595C2.06837 59.9616 2.4756 60 2.88283 60C3.27733 60 3.67184 59.9616 4.07907 59.9361C4.47357 59.8978 4.8808 59.8722 5.27531 59.8722C5.36439 59.8722 5.44074 59.8722 5.52983 59.8722C14.2217 59.4635 22.7862 57.8156 31.1981 55.7462C40.4117 53.4724 49.3835 50.4194 58.3425 47.3536C61.2822 46.3828 64.2092 45.3736 67.1998 44.5561C67.8616 44.4028 68.5615 44.275 69.2487 44.275C69.5414 44.275 69.8468 44.3006 70.1395 44.3517C70.6613 44.7477 70.7249 45.4503 70.8267 46.0379C70.8522 46.5744 70.9921 47.1109 71.4121 47.4813C71.9466 48.0306 72.6974 48.2606 73.461 48.2606C73.9318 48.2606 74.4154 48.1711 74.8354 47.9923C77.5587 47.162 80.1294 45.9229 82.7764 44.8626C89.7884 41.9118 96.8513 38.9866 104.296 37.1982C112.873 35.0266 121.578 33.251 130.41 32.459Z" fill="white"/>
<path d="M127.903 0H127.152L126.312 2.41431L125.434 0H124.709V3.92165H125.129V0.625931H125.141L126.02 3.09133H126.529L127.407 0.549287H127.419V3.90888H127.916V0H127.903ZM124.352 0H120.751V0.447094H122.253V3.90888H122.851V0.447094H124.352V0V0Z" fill="white"/>
</svg>
