<svg width="16" height="15" viewBox="0 0 16 15" fill="none" xmlns="http://www.w3.org/2000/svg">
<path d="M15.6537 6.79775C15.9687 6.49741 16.0799 6.05662 15.944 5.64687C15.8079 5.23711 15.4532 4.94461 15.0175 4.88254L11.1434 4.33171C10.9784 4.3082 10.8359 4.20693 10.7622 4.06053L9.0302 0.625758C8.83573 0.239832 8.44102 0 8.00114 0C7.56157 0 7.16686 0.239832 6.97239 0.625758L5.2401 4.06084C5.16641 4.20725 5.02352 4.30851 4.85852 4.33202L0.984479 4.88285C0.549081 4.94461 0.1941 5.23743 0.0579378 5.64718C-0.0779036 6.05693 0.0332685 6.49772 0.348203 6.79806L3.15121 9.47164C3.27072 9.58575 3.3255 9.75003 3.29731 9.91055L2.63604 13.6858C2.57741 14.0181 2.66648 14.3413 2.88626 14.5962C3.22778 14.9934 3.82401 15.1144 4.30074 14.8693L7.76534 13.0867C7.91015 13.0124 8.09244 13.013 8.23694 13.0867L11.7019 14.8693C11.8704 14.9561 12.0501 15 12.2356 15C12.5743 15 12.8953 14.8527 13.116 14.5962C13.3361 14.3413 13.4249 14.0175 13.3662 13.6858L12.7046 9.91055C12.6765 9.74972 12.7312 9.58575 12.8507 9.47164L15.6537 6.79775Z" fill="#F47A20"/>
</svg>
