<svg width="138" height="32" viewBox="0 0 138 32" fill="none" xmlns="http://www.w3.org/2000/svg">
<path fill-rule="evenodd" clip-rule="evenodd" d="M43.8459 23.5532H40.8599V2.96022H43.8409V10.4012C44.9559 9.10922 46.5399 8.58522 47.8909 8.58522C52.0939 8.58522 54.3449 11.2692 54.3449 15.1302V23.5532H51.3579V15.1982C51.3579 13.0392 49.8839 11.5612 47.8109 11.5612C45.5509 11.5612 43.8459 13.2442 43.8459 15.3182V23.5532ZM60.6899 23.5532H57.6579V8.96022H60.6899V23.5532ZM59.1739 2.44922C59.7033 2.46949 60.2044 2.69408 60.5718 3.07584C60.9392 3.45761 61.1445 3.96686 61.1445 4.49672C61.1445 5.02658 60.9392 5.53583 60.5718 5.9176C60.2044 6.29936 59.7033 6.52395 59.1739 6.54422C58.6444 6.52395 58.1434 6.29936 57.7759 5.9176C57.4085 5.53583 57.2033 5.02658 57.2033 4.49672C57.2033 3.96686 57.4085 3.45761 57.7759 3.07584C58.1434 2.69408 58.6444 2.46949 59.1739 2.44922ZM73.6919 17.2202V14.3502H65.0939V17.2202H73.6919Z" fill="#005FF9"/>
<path d="M87.945 20.228C86.566 21 85.302 20.948 85.302 20.948V20.947L85.179 20.949C84.223 20.949 83.514 20.697 83.013 20.18C82.182 19.323 82.042 17.836 82.057 17.344L82.058 17.28V11.83H87.765V8.95996H82.058V2.95996H79.08V8.95996H76.125V11.83H79.08V17.438C78.98 20.598 80.822 23.927 85.179 23.927C86.6972 23.9273 88.1825 23.4849 89.453 22.654L87.945 20.228Z" fill="#005FF9"/>
<path fill-rule="evenodd" clip-rule="evenodd" d="M104.655 20.993C104.609 21.0474 104.561 21.1004 104.512 21.152C102.185 23.603 99.7922 23.927 97.9771 23.927C95.9429 23.9262 93.9922 23.1177 92.5538 21.6793C91.1154 20.2409 90.3069 18.2902 90.3062 16.256C90.3072 14.2218 91.1157 12.2713 92.5541 10.8329C93.9925 9.39455 95.943 8.58602 97.9771 8.58496C100.977 8.58496 103.577 10.311 104.838 12.824C105.024 13.207 105.769 14.948 105.504 17.738V17.739H93.5212C94.0832 19.622 95.8871 20.981 97.9771 20.981C100.164 20.979 101.706 20.045 102.746 19.062L104.655 20.993ZM102.513 14.868C102.039 13.053 100.319 11.57 97.9771 11.57C95.6351 11.57 93.9291 13.022 93.4781 14.868H102.513ZM121.78 20.753C121.061 21.7372 120.12 22.5377 119.033 23.0893C117.947 23.6409 116.745 23.9279 115.526 23.927C113.492 23.9262 111.541 23.1177 110.103 21.6793C108.664 20.2409 107.856 18.2902 107.855 16.256C107.856 14.2218 108.665 12.2713 110.103 10.8329C111.541 9.39455 113.492 8.58602 115.526 8.58496C117.856 8.58496 119.986 9.62696 121.393 11.269L119.03 13.095C118.172 12.155 117.013 11.565 115.526 11.565C112.937 11.565 110.901 13.667 110.901 16.256C110.901 18.845 112.937 20.947 115.526 20.947C117.225 20.947 118.542 20.166 119.392 18.969L121.78 20.753ZM127.06 23.553H124.074V2.95996H127.055V10.401C128.17 9.10896 129.754 8.58496 131.105 8.58496C135.309 8.58496 137.559 11.269 137.559 15.13V23.553H134.573V15.198C134.573 13.039 133.099 11.561 131.026 11.561C128.765 11.561 127.06 13.244 127.06 15.318V23.553Z" fill="#005FF9"/>
<path d="M20.813 16C20.813 18.654 18.654 20.813 16 20.813C13.346 20.813 11.187 18.654 11.187 16C11.187 13.346 13.346 11.187 16 11.187C18.654 11.187 20.813 13.346 20.813 16ZM16 0C7.178 0 0 7.178 0 16C0 24.822 7.178 32 16 32C19.232 32 22.349 31.038 25.013 29.217L25.059 29.185L22.903 26.679L22.867 26.703C20.8194 28.0212 18.4353 28.7215 16 28.72C8.986 28.72 3.28 23.014 3.28 16C3.28 8.986 8.986 3.28 16 3.28C23.014 3.28 28.72 8.986 28.72 16C28.72 16.909 28.619 17.829 28.42 18.734C28.018 20.385 26.862 20.891 25.994 20.824C25.121 20.753 24.1 20.131 24.093 18.609V16C24.093 11.537 20.463 7.907 16 7.907C11.537 7.907 7.907 11.537 7.907 16C7.907 20.463 11.537 24.093 16 24.093C17.0665 24.0955 18.1229 23.8856 19.1074 23.4754C20.0919 23.0652 20.9848 22.463 21.734 21.704C22.1686 22.3856 22.7562 22.9564 23.45 23.3711C24.1439 23.7858 24.9249 24.033 25.731 24.093C27.0476 24.1956 28.3561 23.812 29.409 23.015C30.368 22.287 31.084 21.234 31.48 19.969C31.543 19.765 31.659 19.297 31.66 19.294L31.663 19.277C31.896 18.262 32 17.25 32 16C32 7.178 24.822 0 16 0Z" fill="#FF9E00"/>
</svg>
