<svg width="144" height="32" viewBox="0 0 144 32" fill="none" xmlns="http://www.w3.org/2000/svg">
<path d="M44.8 4.99953C44.5371 4.02845 44.0234 3.14362 43.3104 2.43391C42.5974 1.72419 41.7102 1.21458 40.7379 0.956235C37.1689 0 22.8668 0 22.8668 0C22.8668 0 8.56094 0 4.99953 0.956235C4.03037 1.21676 3.14669 1.72743 2.43706 2.43706C1.72743 3.14669 1.21676 4.03037 0.956235 4.99953C0 8.56471 0 16.0075 0 16.0075C0 16.0075 0 23.4504 0.956235 27.0155C1.21676 27.9847 1.72743 28.8684 2.43706 29.578C3.14669 30.2876 4.03037 30.7983 4.99953 31.0588C8.56471 32 22.8668 32 22.8668 32C22.8668 32 37.1727 32 40.7379 31.0438C41.7084 30.7867 42.5944 30.2794 43.3072 29.5725C44.0201 28.8655 44.5348 27.9838 44.8 27.0155C45.7525 23.4504 45.7525 16.0075 45.7525 16.0075C45.7525 16.0075 45.7336 8.56471 44.8 4.99953Z" fill="#FF0000"/>
<path d="M18.2925 22.8665L30.1777 16.0072L18.2925 9.14795V22.8665Z" fill="white"/>
<path d="M66.3869 29.1237C65.4256 28.4361 64.7409 27.4283 64.4556 26.2814C64.0282 24.6044 63.8357 22.8762 63.8834 21.1463V18.2324C63.8296 16.4759 64.0506 14.7217 64.5385 13.0334C64.866 11.8707 65.589 10.8588 66.5827 10.1722C67.6852 9.52705 68.9508 9.21458 70.2269 9.27242C71.7102 9.27242 72.8986 9.57736 73.7921 10.1872C74.7514 10.8917 75.4441 11.9002 75.7573 13.0484C76.2214 14.7358 76.4308 16.4831 76.3785 18.2324V21.1463C76.4278 22.8833 76.2237 24.6183 75.7723 26.2964C75.4726 27.4458 74.7783 28.4533 73.8109 29.1425C72.9024 29.7424 71.6751 30.0423 70.1291 30.0423C68.5378 30.0423 67.2905 29.7361 66.3869 29.1237ZM71.4542 25.9764C71.7052 25.3264 71.8307 24.2585 71.8307 22.7727V16.5345C71.8307 15.0927 71.7065 14.0423 71.4542 13.3759C71.3756 13.086 71.2027 12.8306 70.9627 12.6499C70.7227 12.4693 70.4294 12.3737 70.1291 12.3783C69.8337 12.378 69.5466 12.4758 69.3129 12.6564C69.0791 12.837 68.912 13.0901 68.8378 13.3759C68.5855 14.0423 68.4613 15.0927 68.4613 16.5345V22.7802C68.4613 24.2635 68.5868 25.3314 68.8378 25.9839C68.9119 26.2716 69.0815 26.5254 69.3189 26.704C69.5563 26.8825 69.8472 26.9751 70.1441 26.9665C70.4412 26.9695 70.7309 26.874 70.968 26.6948C71.205 26.5157 71.376 26.2631 71.4542 25.9764Z" fill="#282828"/>
<path d="M135.853 21.1916V22.2118C135.839 23.1769 135.877 24.1421 135.966 25.1031C135.991 25.6072 136.155 26.0945 136.44 26.5111C136.579 26.6647 136.752 26.7844 136.944 26.8607C137.137 26.9371 137.344 26.9682 137.551 26.9516C137.835 26.9787 138.121 26.9182 138.37 26.7782C138.619 26.6383 138.819 26.4255 138.944 26.1685C139.195 25.644 139.33 24.7655 139.35 23.5332L143.243 23.7629C143.269 24.0016 143.28 24.2418 143.277 24.4819C143.277 26.3342 142.775 27.7146 141.771 28.6231C140.755 29.5379 139.324 29.9972 137.468 29.9972C135.247 29.9972 133.685 29.3008 132.792 27.9041C131.9 26.5073 131.452 24.3502 131.452 21.4288V17.9276C131.452 14.9158 131.915 12.7197 132.841 11.3393C133.767 9.95896 135.354 9.26625 137.6 9.26123C139.148 9.26123 140.337 9.54484 141.165 10.1121C142.044 10.7534 142.665 11.6881 142.916 12.7473C143.3 14.3759 143.47 16.0479 143.42 17.7205V21.1539L135.853 21.1916ZM136.425 12.7549C136.149 13.1676 135.99 13.6479 135.966 14.1441C135.876 15.1177 135.839 16.0954 135.853 17.073V18.5111H139.155V17.073C139.169 16.0949 139.125 15.1169 139.023 14.1441C138.992 13.6399 138.826 13.1533 138.541 12.7361C138.406 12.5929 138.24 12.482 138.057 12.4116C137.873 12.3412 137.676 12.3131 137.479 12.3295C137.283 12.3147 137.086 12.3454 136.903 12.4191C136.72 12.4929 136.557 12.6078 136.425 12.7549Z" fill="#282828"/>
<path d="M55.3938 20.8191L50.2588 2.25914H54.7388L56.5383 10.662C56.9976 12.7376 57.3364 14.5045 57.5548 15.9627H57.6828C57.8359 14.9161 58.1747 13.1592 58.6993 10.6921L60.5816 2.25537H65.0616L59.8588 20.8191V29.7151H55.3938V20.8191Z" fill="#282828"/>
<path d="M90.9517 9.66406V29.7149H87.4166L87.0401 27.2603H86.9423C85.981 29.1125 84.5416 30.0399 82.6241 30.0424C81.294 30.0424 80.3126 29.6057 79.6801 28.7323C79.0477 27.8627 78.7314 26.4961 78.7314 24.6438V9.66406H83.2491V24.3841C83.2077 25.0353 83.3079 25.6877 83.5427 26.2965C83.6316 26.4783 83.7724 26.6297 83.9473 26.7316C84.1222 26.8334 84.3233 26.8812 84.5253 26.8688C84.9312 26.8604 85.325 26.7292 85.6547 26.4923C85.9915 26.271 86.2621 25.9627 86.4378 25.6001V9.66406H90.9517Z" fill="#282828"/>
<path d="M114.101 9.66406V29.7149H110.569L110.193 27.2603H110.095C109.136 29.1125 107.697 30.0399 105.777 30.0424C104.444 30.0424 103.465 29.6057 102.833 28.7323C102.201 27.8589 101.884 26.4961 101.884 24.6438V9.66406H106.402V24.3841C106.361 25.0353 106.461 25.6877 106.696 26.2965C106.784 26.4774 106.923 26.6282 107.097 26.7301C107.27 26.8319 107.47 26.8801 107.671 26.8688C108.077 26.8616 108.471 26.7302 108.8 26.4923C109.14 26.2736 109.412 25.9647 109.587 25.6001V9.66406H114.101Z" fill="#282828"/>
<path d="M103.213 5.90302H98.7334V29.7148H94.3174V5.90302H89.8374V2.25879H103.213V5.90302Z" fill="#282828"/>
<path d="M129.039 12.8677C128.768 11.6065 128.324 10.6879 127.714 10.1232C127.016 9.52411 126.113 9.21909 125.195 9.27238C124.369 9.27162 123.56 9.51666 122.873 9.97638C122.17 10.437 121.601 11.0745 121.224 11.8249H121.194V1.25732H116.823V29.7147H120.554L121.009 27.8324H121.107C121.46 28.5097 122.006 29.0667 122.677 29.4324C123.384 29.8225 124.181 30.0211 124.988 30.0084C125.699 30.036 126.402 29.8499 127.006 29.4741C127.61 29.0983 128.087 28.55 128.377 27.9002C129.094 26.4921 129.455 24.2948 129.457 21.3081V18.1345C129.494 16.3693 129.354 14.605 129.039 12.8677ZM124.898 21.0484C124.916 22.1956 124.856 23.3428 124.717 24.4818C124.67 25.112 124.463 25.7196 124.115 26.2474C123.98 26.4158 123.808 26.5507 123.612 26.6415C123.416 26.7322 123.201 26.7765 122.986 26.7707C122.625 26.7737 122.27 26.6843 121.954 26.511C121.635 26.3241 121.374 26.0515 121.201 25.7241V14.3434C121.33 13.8332 121.598 13.3691 121.977 13.0032C122.296 12.6762 122.732 12.4882 123.189 12.4799C123.395 12.4737 123.599 12.5199 123.782 12.614C123.965 12.7082 124.121 12.8473 124.235 13.0183C124.548 13.5743 124.728 14.1956 124.759 14.8329C124.872 16.0391 124.921 17.2506 124.906 18.462L124.898 21.0484Z" fill="#282828"/>
</svg>
