<svg width="10" height="10" viewBox="0 0 10 10" fill="none" xmlns="http://www.w3.org/2000/svg">
<circle cx="5" cy="5" r="5" fill="#A3B3DD"/>
<path d="M4.72384 6.125L5.67442 5.84593C5.58721 5.76744 5.51744 5.61919 5.51744 5.47965C5.51744 4.74709 6.97384 4.65116 6.97384 3.37791C6.97384 2.56686 6.28488 2 5.15988 2C4.40988 2 3.71221 2.30523 3.25 2.84593L3.9564 3.63953C4.22674 3.31686 4.59302 3.09884 5.02907 3.09884C5.50872 3.09884 5.7093 3.32558 5.7093 3.59593C5.7093 4.19767 4.43605 4.31977 4.43605 5.35756C4.43605 5.66279 4.5407 5.92442 4.72384 6.125ZM5.14244 8C5.52616 8 5.84884 7.67733 5.84884 7.29361C5.84884 6.90988 5.52616 6.58721 5.14244 6.58721C4.75872 6.58721 4.43605 6.90988 4.43605 7.29361C4.43605 7.67733 4.75872 8 5.14244 8Z" fill="white"/>
</svg>
