<svg width="30" height="30" viewBox="0 0 30 30" fill="none" xmlns="http://www.w3.org/2000/svg">
<path d="M21.8941 0H8.10592C3.63633 0 0 3.63633 0 8.10592V21.8941C0 26.3637 3.63633 30 8.10592 30H21.8941C26.3637 30 30 26.3637 30 21.8941V8.10592C30 3.63633 26.3637 0 21.8941 0ZM27.5763 21.8941C27.5763 25.0273 25.0273 27.5763 21.8941 27.5763H8.10592C4.97273 27.5763 2.42367 25.0273 2.42367 21.8941V8.10592C2.42367 4.97273 4.97268 2.42367 8.10592 2.42367H21.8941C25.0273 2.42367 27.5763 4.97268 27.5763 8.10592V21.8941V21.8941Z" fill="white"/>
<path d="M21.714 13.9543C21.5007 12.516 20.8445 11.2124 19.8163 10.1842C18.7882 9.15616 17.4846 8.49991 16.0464 8.28668C15.3915 8.18959 14.7276 8.18959 14.0728 8.28668C12.2953 8.5503 10.7269 9.49026 9.65647 10.9335C8.58602 12.3767 8.14159 14.1504 8.4052 15.9278C8.66882 17.7053 9.60878 19.2736 11.052 20.3442C12.2236 21.2132 13.6129 21.6695 15.0453 21.6695C15.3774 21.6695 15.7118 21.645 16.0463 21.5954C17.8238 21.3318 19.3922 20.3918 20.4626 18.9486C21.5331 17.5054 21.9776 15.7317 21.714 13.9543ZM15.6908 19.1979C14.5538 19.3668 13.4191 19.0823 12.4959 18.3975C11.5726 17.7127 10.9713 16.7094 10.8027 15.5723C10.6341 14.4353 10.9183 13.3007 11.6031 12.3774C12.288 11.4541 13.2913 10.8529 14.4283 10.6842C14.6378 10.6532 14.8486 10.6376 15.0595 10.6376C15.2704 10.6376 15.4813 10.6532 15.6907 10.6843C17.5793 10.9643 19.0363 12.4213 19.3164 14.3099C19.6645 16.657 18.0381 18.8498 15.6908 19.1979Z" fill="white"/>
<path d="M23.4404 6.56004C23.2147 6.33439 22.9023 6.20508 22.5835 6.20508C22.2646 6.20508 21.9522 6.33434 21.7265 6.56004C21.5009 6.78574 21.3716 7.09758 21.3716 7.41698C21.3716 7.73637 21.5009 8.04821 21.7265 8.27391C21.9522 8.49956 22.2646 8.62887 22.5835 8.62887C22.9023 8.62887 23.2147 8.49962 23.4404 8.27391C23.6661 8.04821 23.7954 7.73584 23.7954 7.41698C23.7954 7.09805 23.6661 6.78569 23.4404 6.56004Z" fill="white"/>
</svg>
