<svg width="136" height="60" viewBox="0 0 136 60" fill="none" xmlns="http://www.w3.org/2000/svg">
<path d="M20.903 24.3474C21.1957 22.8018 20.0376 20.9751 18.3833 20.9879C16.4871 21.205 14.6291 21.601 12.7966 22.1248C10.5059 22.7762 8.26613 23.6066 6.07726 24.5135C4.13019 25.3438 2.20857 26.2125 0.414215 27.3366C-0.196631 27.9242 -0.158453 29.2016 0.706912 29.5465C1.91588 29.8275 3.17575 29.521 4.37199 29.3677C4.62651 29.406 5.22463 29.0228 5.161 29.3932C4.39744 36.3934 3.35391 43.3681 2.66671 50.3811C2.5649 50.9559 1.76317 51.1475 1.77589 51.7607C1.91588 52.4377 2.03041 53.3958 2.81942 53.6129C4.07929 53.8556 5.32643 53.3447 6.5863 53.3575C8.73699 53.1531 10.8368 52.5655 12.7838 51.6329L12.8093 51.6202C17.0979 49.3081 19.6686 44.4028 19.6177 39.5614C19.6177 38.003 19.974 36.2785 19.1214 34.8733C18.4851 33.8131 17.1616 33.647 16.2708 32.8933C16.2071 32.2419 16.8943 31.9225 17.0979 31.3732C18.5996 29.2016 20.4703 27.0556 20.903 24.3474ZM16.7543 39.3826C16.9707 40.3023 16.6144 41.2221 16.4107 42.1162C15.7363 44.3134 14.4255 46.2678 12.7966 47.8646C12.4275 48.2095 12.0585 48.5416 11.664 48.8482C10.3914 49.5891 8.81334 49.6785 7.40076 49.3719C6.89173 49.2059 6.73901 48.6055 6.85355 48.1201C7.06989 47.1365 7.12079 46.1401 7.33713 45.1437C7.64256 43.4575 7.99888 41.7969 8.36794 40.1235C9.83142 39.357 11.2185 38.3223 12.7711 37.7347C13.4074 37.5048 14.0692 37.3387 14.7691 37.3004C15.8381 37.4281 16.4616 38.4628 16.7543 39.3826ZM16.7798 26.0975C16.3726 26.7873 15.8635 27.4005 15.4563 28.0775C14.6291 29.2783 13.7383 30.4535 12.7966 31.5776C11.524 33.0722 10.1623 34.4773 8.67336 35.742C8.82607 32.9317 8.30431 29.9936 9.33511 27.311C9.85687 26.353 11.0658 26.3019 12.0203 26.1103C12.2748 26.0592 12.542 25.9825 12.7966 25.9187C13.9801 25.5738 15.1381 25.1139 16.3853 25.1139C16.8689 25.0756 17.0598 25.7526 16.7798 26.0975Z" fill="#2A3289"/>
<path d="M28.3604 28.1541C28.3477 28.1541 28.3223 28.1541 28.3095 28.1541C26.757 28.6396 25.039 28.8695 23.7155 29.9042C23.3591 30.1725 23.1682 30.7345 23.5755 31.0539C23.9318 31.3477 24.3772 31.4243 24.8353 31.4243C25.1662 31.4243 25.5098 31.386 25.828 31.3732C25.8534 31.7437 25.7007 32.293 25.6498 32.74C24.9626 37.7347 23.8554 42.6911 23.4737 47.7241C23.4737 48.631 23.3209 49.6785 23.9318 50.4194C24.1736 50.5855 24.4281 50.6494 24.6954 50.6494C25.3826 50.6494 26.0825 50.1639 26.4006 49.5636C27.406 47.954 27.4951 45.9613 28.3732 44.2878C30.282 39.4976 33.1327 34.9627 37.2559 31.7948C37.9813 31.1944 38.9612 30.8367 39.4702 29.9936C39.6738 29.2272 38.9103 28.5501 38.2103 28.4607C38.1085 28.4352 37.994 28.4352 37.8922 28.4352C37.345 28.4352 36.8232 28.6907 36.3651 28.9717C33.4381 30.4918 31.4274 33.1871 29.2003 35.5376C29.1367 35.5887 29.0731 35.6015 29.0095 35.6015C28.7422 35.6015 28.5259 35.2693 28.5895 35.0011C28.475 32.97 29.5694 30.99 29.0985 28.9589C28.9967 28.5885 28.8058 28.1541 28.3604 28.1541Z" fill="#31348B"/>
<path d="M57.9993 34.5284C57.8593 34.5284 57.7193 34.5795 57.6302 34.6817C56.1286 35.4992 55.2378 37.0832 53.7997 37.9774C52.4889 39.076 51.2163 40.3279 49.7529 41.2221C48.9893 41.6819 48.1748 42.0396 47.2713 42.2057C46.9786 42.2695 46.6859 42.2951 46.3932 42.2951C45.4006 42.2951 44.3952 41.9374 43.708 41.1965C42.4482 39.9574 41.9519 37.8241 42.8427 36.2401C43.2626 35.5503 44.0516 35.2054 44.8152 35.1033C46.4696 34.6817 48.1239 34.2474 49.7529 33.7236C51.5854 33.1233 53.367 32.3951 55.0341 31.4243C56.1031 30.7473 57.363 29.9042 57.5157 28.5374C57.8084 26.072 55.6704 23.6066 53.1889 23.6066C53.0998 23.6066 53.0107 23.6066 52.9216 23.6193C52.8962 23.6193 52.858 23.6193 52.8325 23.6193C52.7689 23.6193 52.7053 23.6193 52.6417 23.6193C51.6618 23.6449 50.6946 23.7854 49.7529 24.0792C48.4166 24.488 47.1568 25.1778 46.1387 26.1741C43.8226 28.2052 41.8628 30.6962 40.552 33.4937C39.3939 36.2529 39.0503 39.5359 40.3611 42.2951C41.0356 43.7769 42.4609 44.8371 44.0516 45.1054C44.4334 45.182 44.8025 45.2076 45.1842 45.2076C46.7877 45.2076 48.3403 44.6072 49.7529 43.8407C49.9056 43.7641 50.0583 43.6747 50.1983 43.5853C52.3999 42.2951 54.2451 40.5195 55.874 38.5906C56.8794 37.4792 58.0884 36.3296 58.3429 34.7839C58.3047 34.6051 58.1647 34.5284 57.9993 34.5284ZM44.9297 30.9133C46.2787 29.2655 47.5894 27.4771 49.5365 26.4935C49.6129 26.4552 49.6892 26.4169 49.7656 26.3785C50.4401 26.0592 51.1909 25.8548 51.9417 25.8165C53.367 25.8292 54.9196 26.8512 55.0341 28.3585C54.9832 29.2783 54.0288 29.7381 53.2652 29.9936C52.0817 30.3641 50.9237 30.8367 49.7529 31.2838C48.1367 31.8842 46.495 32.4079 44.7643 32.4973C44.2552 32.0758 44.497 31.2966 44.9297 30.9133Z" fill="#31348B"/>
<path d="M78.8441 30.9772C78.5896 30.9772 78.3733 31.2966 78.1569 31.3988C77.088 32.293 76.2353 33.4171 75.09 34.2091C73.6774 35.3971 72.303 36.7639 70.6868 37.6709C70.0632 38.0158 69.4015 38.2968 68.7016 38.4884C68.2943 38.6161 67.8616 38.68 67.429 38.68C66.3345 38.68 65.2528 38.2712 64.4765 37.492C63.0131 36.1124 62.5295 33.5831 63.7384 31.8842C64.2602 31.1944 65.1001 30.875 65.9146 30.7345C67.4926 30.313 69.1088 29.917 70.6868 29.4316C72.9011 28.7418 75.0263 27.8603 76.8971 26.4552C77.6606 25.8804 78.3478 24.9989 78.1951 23.9898C78.1569 21.8948 76.2989 19.9659 74.1864 19.9659C74.1483 19.9659 74.1101 19.9659 74.0719 19.9659C73.9828 19.9659 73.8937 19.9659 73.8174 19.9659C72.7611 19.9659 71.6922 20.1448 70.6868 20.4769C69.1215 21.0006 67.6962 21.9204 66.589 23.1595C64.3493 25.4077 62.2495 27.9625 61.3587 31.0666C60.6206 33.6087 60.5951 36.5723 62.0713 38.8588C63.0131 40.1874 64.6165 40.9027 66.2073 40.9027C66.6909 40.9027 67.1744 40.8388 67.6326 40.7111C68.7143 40.4684 69.7324 40.0468 70.6868 39.5231C72.3539 38.6034 73.8428 37.3387 75.1791 35.9974C76.2608 34.8989 77.3043 33.7237 78.2715 32.5101C78.5769 32.063 78.9332 31.5648 78.9587 31.0283C78.9205 30.9772 78.8823 30.9772 78.8441 30.9772ZM65.3801 27.0556C66.5381 25.7271 67.5562 24.258 68.9561 23.1595C69.4906 22.7251 70.0632 22.3547 70.6868 22.0737C71.4122 21.7415 72.2012 21.5372 73.0156 21.5116C73.0284 21.5116 73.0284 21.5116 73.0411 21.5116C74.5937 21.5116 76.2353 22.6485 76.3753 24.2836C76.4135 25.1778 75.5481 25.7271 74.8355 26.0975C73.4738 26.6979 72.0994 27.2727 70.6995 27.7326C70.3941 27.8348 70.0887 27.9242 69.7833 28.0136C68.4089 28.4224 66.9963 28.8056 65.571 28.9845C64.8329 28.6396 64.8965 27.5793 65.3801 27.0556Z" fill="#31348B"/>
<path d="M94.5989 31.105C93.4026 32.1397 92.1555 33.2382 90.7556 34.0047C89.9157 34.4518 89.0376 34.7967 88.0705 34.9244C87.8414 34.9627 87.5996 34.9883 87.3705 34.9883C86.0216 34.9883 84.6981 34.3496 83.8964 33.251C82.7638 31.7948 82.3692 29.6232 83.2982 27.9625C84.0491 26.7873 85.4871 26.4169 86.7852 26.2252C88.1086 25.8676 89.4449 25.5099 90.7556 25.0884C93.059 24.3602 95.2988 23.4149 97.2077 21.882C98.2003 21.0006 98.1494 19.3911 97.5131 18.3053C96.8641 17.1045 95.6297 16.1976 94.2553 16.1976C94.1535 16.1976 94.0389 16.2103 93.9371 16.2103C92.8554 16.2231 91.7737 16.3892 90.7429 16.7341C89.5594 17.1301 88.465 17.7688 87.5742 18.6374C85.4362 20.528 83.68 22.8529 82.3438 25.3694C81.2112 27.937 80.8167 30.99 81.8602 33.647C82.522 35.4226 84.3799 36.534 86.2252 36.534C86.5943 36.534 86.976 36.4829 87.3324 36.3934C88.5413 36.1635 89.6739 35.7036 90.7302 35.0905C92.41 34.1324 93.899 32.8167 95.2479 31.4754C96.4569 30.2108 97.6913 28.9461 98.5948 27.4388C97.1568 28.5501 96.0878 30.083 94.5989 31.105ZM85.4998 22.6102C86.9379 20.7068 88.5286 18.7013 90.7556 17.7305C90.9211 17.6666 91.0738 17.5899 91.2392 17.5389C91.8119 17.3472 92.4227 17.2195 93.0336 17.2067C93.0463 17.2067 93.0718 17.2067 93.0845 17.2067C94.917 17.2067 96.7496 18.7268 96.7496 20.643C96.3042 21.9204 94.9043 22.3802 93.7717 22.8784C92.7918 23.3255 91.7864 23.7087 90.7684 24.0409C89.254 24.5263 87.7014 24.9095 86.1361 25.2289C86.0216 25.2544 85.9071 25.28 85.7925 25.28C85.5507 25.28 85.3089 25.1905 85.1435 24.9862C84.5072 24.3091 84.7235 23.0956 85.4998 22.6102Z" fill="#31348B"/>
<path d="M109.374 0L109.31 0.0383223L109.272 0.0638705C108.534 0.49819 107.745 0.894188 107.109 1.46902C107.516 1.31573 107.91 1.16244 108.318 1.0347C108.152 2.75921 107.656 4.44539 107.414 6.15712C107.07 7.76666 106.612 9.44007 105.582 10.7558C104.411 11.9438 102.629 11.9693 101.178 12.5697C100.428 12.9402 99.4476 13.234 99.0913 14.0515C99.1931 14.1026 99.2949 14.1282 99.3967 14.1282C99.6385 14.1282 99.9185 14.0132 100.148 13.9749C101.344 13.6044 102.489 12.7741 103.762 12.7741C103.94 12.7741 104.118 12.7869 104.296 12.8252C105.06 12.9657 105.492 13.7449 105.467 14.4858C105.454 15.4056 105.162 16.2998 105.111 17.2323C104.423 22.4952 103.609 27.7454 103.075 33.0211C103.138 33.1488 103.291 33.2127 103.444 33.2127C103.634 33.2127 103.825 33.1105 103.787 32.8806C104.958 26.1486 105.34 19.2761 106.918 12.608C107.503 11.0752 109.094 10.2704 110.545 9.73387C111.385 9.3762 112.492 9.26123 113.001 8.40536C112.924 8.39259 112.848 8.39259 112.772 8.39259C112.212 8.39259 111.665 8.5842 111.13 8.78859C110.583 8.9802 110.048 9.18458 109.488 9.18458C109.285 9.18458 109.081 9.15904 108.878 9.09517C108.076 8.75027 107.923 7.67724 108.152 6.91079C108.521 5.16074 108.89 3.41069 109.234 1.64786C109.323 1.09857 109.374 0.549287 109.374 0Z" fill="#31348B"/>
<path d="M117.76 0.408783L117.722 0.434331C117.009 0.95807 116.195 1.45626 115.673 2.13329C116.22 1.99277 116.691 1.6351 117.226 1.46903C116.551 4.50927 115.902 7.54951 115.508 10.6408C114.528 17.2962 113.51 23.977 112.657 30.6451C113.052 30.6323 113.141 30.1725 113.217 29.8659C114.032 27.4388 114.833 24.999 115.737 22.6102C116.78 19.9915 118.308 17.5516 120.344 15.5972C121.464 14.4348 122.52 13.119 123.996 12.4037C124.174 12.3398 124.352 12.3143 124.543 12.3143C125.358 12.3143 126.21 12.8763 126.236 13.7322C126.465 15.7377 125.905 17.7049 125.676 19.6721C125.23 22.2014 124.556 24.7051 124.518 27.2855C124.721 26.2636 124.9 25.2289 125.167 24.2197C125.994 20.6047 126.948 16.9896 127.279 13.2851C127.305 12.5953 127.381 11.8416 127.152 11.1901C126.859 10.6792 126.261 10.3726 125.676 10.3726C125.256 10.3726 124.849 10.5259 124.556 10.8708C122.164 12.6208 120.382 15.1118 117.9 16.7469C117.773 16.7724 117.659 16.798 117.544 16.798C116.5 16.798 115.622 15.6228 115.864 14.588C116.131 13.0424 116.284 11.4839 116.602 9.95104C117.162 6.80861 117.875 3.64063 117.76 0.408783Z" fill="#31348B"/>
<path d="M134.38 4.95636L134.342 4.96913C133.4 5.25016 132.675 6.00384 132.128 6.78306C131.631 7.72834 131.873 8.83969 131.708 9.84884C131.504 12.046 130.906 14.2304 131.033 16.4531C131.135 16.3636 131.301 15.776 131.415 15.4822C131.886 14.0515 132.675 12.7613 133.12 11.3179C133.693 9.65723 134.151 7.95828 134.698 6.28487C134.507 5.86332 134.647 5.35236 134.38 4.95636ZM130.855 22.3675C130.842 22.3675 130.83 22.3675 130.804 22.3675C129.366 22.4313 127.992 23.7471 128.119 25.2416C128.361 25.4205 128.628 25.4971 128.908 25.4971C129.646 25.4971 130.397 24.9351 130.562 24.1942C130.791 23.6193 131.135 23.0317 131.046 22.393C130.982 22.3802 130.919 22.3675 130.855 22.3675Z" fill="#31348B"/>
<path d="M35.9261 1.75006C35.7734 1.85225 35.6207 2.05664 35.4425 2.37599V1.69896H34.7681V6.15713H35.5189V3.81947C35.5189 3.50011 35.5571 3.20631 35.6462 2.93805C35.6971 2.75922 35.7989 2.6187 35.9261 2.52928C36.0534 2.42709 36.2061 2.37599 36.3715 2.37599C36.5624 2.37599 36.7406 2.42709 36.9187 2.54206L37.1733 1.83948C36.906 1.67342 36.6515 1.59677 36.397 1.59677C36.2315 1.59677 36.0788 1.64787 35.9261 1.75006Z" fill="#A3B3DD"/>
<path d="M40.2145 1.59677H40.2017C39.5909 1.59677 39.1073 1.81393 38.7128 2.2227C38.331 2.64425 38.1401 3.21908 38.1401 3.97276C38.1401 4.70088 38.331 5.26294 38.7128 5.65894C39.0819 6.05493 39.5782 6.24655 40.2017 6.25932H40.2526C40.7744 6.25932 41.1944 6.13158 41.5252 5.8761C41.8561 5.62062 42.0852 5.27571 42.2124 4.81585L41.4362 4.72643C41.3216 5.04578 41.1689 5.27571 40.978 5.429C40.7871 5.56952 40.5453 5.64616 40.2654 5.64616H40.2017C39.8581 5.63339 39.5654 5.50565 39.3364 5.25017C39.0819 4.99468 38.9546 4.61146 38.9164 4.12604H40.2017H42.2379C42.2379 4.03663 42.2379 3.97276 42.2379 3.92166C42.2379 3.18076 42.047 2.6187 41.6652 2.20993C41.2962 1.80116 40.8126 1.59677 40.2145 1.59677ZM40.2017 3.50011H38.9673C38.9928 3.11689 39.12 2.79754 39.3618 2.5676C39.5909 2.33767 39.8709 2.2227 40.2145 2.2227H40.2399C40.6217 2.2227 40.9271 2.37599 41.1689 2.65702C41.3216 2.84863 41.4234 3.12966 41.4489 3.50011H40.2017Z" fill="#A3B3DD"/>
<path d="M26.0377 1.59677H26.025C25.4141 1.59677 24.9178 1.81393 24.536 2.2227C24.1543 2.64425 23.9634 3.21908 23.9634 3.97276C23.9634 4.70088 24.1543 5.26294 24.536 5.65894C24.9051 6.05493 25.4014 6.24655 26.025 6.25932H26.0759C26.5977 6.25932 27.0176 6.13158 27.3485 5.8761C27.6794 5.62062 27.9084 5.27571 28.0357 4.81585L27.2594 4.72643C27.1449 5.04578 26.9922 5.27571 26.7885 5.429C26.5977 5.56952 26.3559 5.64616 26.0759 5.64616H26.0123C25.6687 5.63339 25.376 5.50565 25.1469 5.25017C24.8924 4.99468 24.7651 4.61146 24.7269 4.12604H26.0123H28.0484C28.0484 4.03663 28.0484 3.97276 28.0484 3.92166C28.0484 3.18076 27.8575 2.6187 27.4757 2.20993C27.1194 1.80116 26.6358 1.59677 26.0377 1.59677ZM26.025 3.50011H24.7778C24.8033 3.11689 24.9306 2.79754 25.1723 2.5676C25.4014 2.33767 25.6814 2.2227 26.025 2.2227H26.0504C26.4322 2.2227 26.7376 2.37599 26.9794 2.65702C27.1321 2.84863 27.234 3.12966 27.2594 3.50011H26.025Z" fill="#A3B3DD"/>
<path d="M6.32531 1.59677H6.31258C5.70174 1.59677 5.21815 1.81393 4.82364 2.2227C4.44187 2.63147 4.25098 3.21908 4.25098 3.97276C4.25098 4.70088 4.44187 5.26294 4.82364 5.65894C5.1927 6.05493 5.68901 6.24655 6.31258 6.25932H6.37621C6.88525 6.25932 7.31793 6.13158 7.64881 5.8761C7.97968 5.62062 8.20875 5.27571 8.33601 4.81585L7.547 4.72643C7.43246 5.04578 7.27975 5.27571 7.07614 5.41623C6.88525 5.56952 6.65618 5.64616 6.37621 5.64616H6.31258C5.96898 5.62062 5.67628 5.49287 5.44722 5.25017C5.1927 4.99468 5.06544 4.61146 5.02726 4.12604H6.31258H8.34873C8.34873 4.03663 8.34873 3.97276 8.34873 3.92166C8.34873 3.18076 8.15784 2.6187 7.77607 2.20993C7.40701 1.80116 6.92343 1.59677 6.32531 1.59677ZM6.31258 3.50011H5.07816C5.10362 3.11689 5.23087 2.79754 5.47267 2.5676C5.70174 2.33767 5.98171 2.2227 6.32531 2.2227H6.35076C6.73254 2.2227 7.03796 2.37599 7.27975 2.65702C7.43246 2.84863 7.52155 3.12966 7.55972 3.50011H6.31258Z" fill="#A3B3DD"/>
<path d="M21.7494 1.75006C21.5967 1.85225 21.4439 2.05664 21.2658 2.37599V1.69896H20.5913V6.15713H21.3421V3.81947C21.3421 3.50011 21.3803 3.20631 21.4694 2.93805C21.5203 2.75922 21.6221 2.6187 21.7494 2.52928C21.8766 2.42709 22.0293 2.37599 22.1948 2.37599C22.3857 2.37599 22.5638 2.42709 22.742 2.54206L22.9965 1.83948C22.7293 1.67342 22.4748 1.59677 22.2202 1.59677C22.0548 1.59677 21.8894 1.64787 21.7494 1.75006Z" fill="#A3B3DD"/>
<path d="M12.5486 5.36513C12.3577 5.54397 12.1032 5.64616 11.8105 5.64616C11.4415 5.64616 11.136 5.50565 10.907 5.23739C10.6906 4.95636 10.5761 4.52204 10.5761 3.92166C10.5761 3.33405 10.6906 2.89973 10.9324 2.63147C11.1742 2.36322 11.4796 2.2227 11.8614 2.2227C12.1159 2.2227 12.3323 2.29935 12.5104 2.45264C12.6886 2.60593 12.8159 2.82309 12.8795 3.12966L13.6176 3.0147C13.5158 2.55483 13.3122 2.20993 13.0067 1.96722C12.7013 1.72451 12.3068 1.59677 11.8232 1.59677C11.4415 1.59677 11.0851 1.68619 10.767 1.86503C10.4361 2.04387 10.1943 2.3249 10.0416 2.68257C9.87616 3.04025 9.7998 3.46179 9.7998 3.94721C9.7998 4.68811 9.99069 5.26294 10.3597 5.65894C10.7288 6.06771 11.2124 6.25932 11.8232 6.25932C12.3068 6.25932 12.714 6.11881 13.0576 5.825C13.3885 5.54397 13.5921 5.1352 13.6685 4.62423L12.9304 4.52204C12.8795 4.90527 12.7522 5.1863 12.5486 5.36513Z" fill="#A3B3DD"/>
<path d="M16.8751 1.59677C16.3279 1.59677 15.8571 1.76283 15.4753 2.09496C15.0172 2.49096 14.7881 3.10412 14.7881 3.93443C14.7881 4.68811 14.979 5.26294 15.3608 5.65894C15.7425 6.06771 16.2516 6.25932 16.8624 6.25932C17.2442 6.25932 17.6132 6.1699 17.9314 5.99106C18.2623 5.81223 18.5041 5.55675 18.6822 5.22462C18.8604 4.89249 18.9367 4.4454 18.9367 3.87056C18.9367 3.16799 18.7459 2.60593 18.3514 2.20993C17.9823 1.80116 17.486 1.59677 16.8751 1.59677ZM17.8169 5.21184C17.5623 5.49287 17.2569 5.64616 16.8879 5.64616C16.5188 5.64616 16.2007 5.50565 15.9589 5.21184C15.7044 4.93081 15.5898 4.49649 15.5898 3.93443C15.5898 3.3596 15.7171 2.93805 15.9589 2.65702C16.2134 2.37599 16.5188 2.23548 16.8879 2.23548C17.2569 2.23548 17.5623 2.37599 17.8169 2.65702C18.0714 2.93805 18.1859 3.3596 18.1859 3.90888C18.1859 4.49649 18.0587 4.93081 17.8169 5.21184Z" fill="#A3B3DD"/>
<path d="M32.261 5.36513C32.0574 5.54397 31.8156 5.63339 31.5229 5.63339C31.1539 5.63339 30.8612 5.49287 30.6321 5.22462C30.403 4.95636 30.2885 4.50927 30.2885 3.92166C30.2885 3.33405 30.403 2.89973 30.6448 2.63147C30.8866 2.36322 31.192 2.2227 31.5738 2.2227C31.8283 2.2227 32.0447 2.29935 32.2228 2.45264C32.401 2.60593 32.5283 2.82309 32.5919 3.12966L33.33 3.0147C33.2155 2.55483 33.0246 2.20993 32.7192 1.96722C32.4137 1.72451 32.0192 1.59677 31.5356 1.59677C31.1539 1.59677 30.7975 1.68619 30.4794 1.86503C30.1485 2.04387 29.9067 2.31212 29.754 2.68257C29.6013 3.04025 29.5122 3.46179 29.5122 3.94721C29.5122 4.68811 29.7031 5.26294 30.0722 5.65894C30.4412 6.05493 30.9248 6.25932 31.5356 6.25932C32.0192 6.25932 32.4265 6.11881 32.7573 5.825C33.0882 5.5312 33.3045 5.1352 33.3809 4.62423L32.6428 4.52204C32.5792 4.90527 32.4646 5.1863 32.261 5.36513Z" fill="#A3B3DD"/>
<path d="M82.1976 1.89058C81.9049 1.69896 81.574 1.59677 81.1922 1.59677H81.1032C80.8486 1.60955 80.6323 1.66064 80.4541 1.76283C80.2505 1.8778 80.0724 2.04387 79.9069 2.2738V1.69896H79.2197V7.86886H79.9706V5.69726C80.0978 5.86332 80.2632 5.99107 80.4669 6.10603C80.6578 6.20823 80.8741 6.25932 81.1032 6.25932H81.1413C81.4849 6.25932 81.8158 6.15713 82.1212 5.96552C82.4267 5.77391 82.6684 5.49288 82.8339 5.12243C82.9993 4.75198 83.0757 4.3432 83.0757 3.88334C83.0757 3.46179 82.9993 3.06579 82.8466 2.70812C82.7066 2.36322 82.4903 2.08219 82.1976 1.89058ZM81.9558 5.21184C81.7267 5.49288 81.434 5.63339 81.1159 5.64616H81.1032C80.7723 5.64616 80.4923 5.50565 80.2632 5.23739C80.0342 4.95636 79.9196 4.53482 79.9196 3.95998C79.9196 3.38515 80.0469 2.95083 80.2887 2.64425C80.5305 2.35044 80.8105 2.19715 81.1159 2.19715H81.1413C81.4595 2.19715 81.7395 2.33767 81.9812 2.6187C82.2103 2.89973 82.3376 3.32128 82.3376 3.89611C82.3121 4.48372 82.1976 4.93081 81.9558 5.21184Z" fill="#A3B3DD"/>
<path d="M77.7178 1.69896H76.8142L76.0634 2.75921C75.9616 2.89973 75.8471 3.06579 75.7198 3.2574C75.6435 3.11689 75.5416 2.95082 75.4144 2.75921L74.7272 1.71173H73.7855L75.2871 3.85778L73.6582 6.18267H74.5745L75.7453 4.41984L75.9871 4.79029L76.9033 6.18267H77.8323L76.1779 3.81946L77.7178 1.69896Z" fill="#A3B3DD"/>
<path d="M86.5753 1.59677H86.5626C85.9517 1.59677 85.4554 1.81393 85.0736 2.2227C84.6919 2.64425 84.501 3.21908 84.501 3.97276C84.501 4.70088 84.6919 5.26294 85.0736 5.65894C85.4427 6.05493 85.939 6.24655 86.5626 6.25932H86.6135C87.1225 6.25932 87.5552 6.13158 87.8861 5.8761C88.2169 5.62062 88.446 5.27571 88.5733 4.81585L87.7843 4.72643C87.6697 5.04578 87.517 5.27571 87.3134 5.429C87.1225 5.56952 86.8807 5.64616 86.6008 5.64616H86.5371C86.1935 5.63339 85.9008 5.50565 85.6718 5.25017C85.4172 4.99468 85.29 4.61146 85.2518 4.12604H86.5371H88.5733C88.5733 4.03663 88.5733 3.97276 88.5733 3.92166C88.5733 3.18076 88.3824 2.6187 88.0006 2.20993C87.657 1.80116 87.1607 1.59677 86.5753 1.59677ZM86.5626 3.50011H85.3154C85.3409 3.11689 85.4681 2.79754 85.7099 2.5676C85.939 2.33767 86.219 2.2227 86.5626 2.2227H86.588C86.9698 2.2227 87.2752 2.37599 87.517 2.65702C87.6697 2.84863 87.7715 3.12966 87.797 3.50011H86.5626Z" fill="#A3B3DD"/>
<path d="M47.5191 4.29211V3.28295C47.5191 2.95082 47.5064 2.72089 47.4809 2.59315C47.43 2.38876 47.3537 2.20993 47.2519 2.08218C47.1373 1.94167 46.9719 1.83948 46.7301 1.75006C46.4883 1.66064 46.1829 1.60954 45.8011 1.60954C45.7375 1.60954 45.6738 1.60954 45.6102 1.60954C45.3048 1.62232 45.0248 1.67341 44.783 1.76283C44.4903 1.86503 44.274 2.01831 44.1213 2.20993C43.9686 2.40154 43.854 2.65702 43.7904 2.97637L44.5285 3.07857C44.6049 2.75921 44.7321 2.54205 44.8976 2.41431C45.0503 2.29934 45.2921 2.23547 45.6102 2.2227H45.6866C46.0684 2.2227 46.3483 2.31212 46.5392 2.47818C46.6792 2.60592 46.7556 2.82308 46.7556 3.12966C46.7556 3.15521 46.7556 3.21908 46.7556 3.32127C46.501 3.41069 46.1193 3.48734 45.6102 3.55121C45.5466 3.56398 45.483 3.56398 45.4066 3.57676C45.1139 3.61508 44.8848 3.6534 44.7321 3.69172C44.5285 3.74282 44.3503 3.83224 44.1849 3.9472C44.0195 4.06217 43.8922 4.20269 43.7904 4.38152C43.6886 4.56036 43.6377 4.76475 43.6377 4.98191C43.6377 5.35236 43.765 5.65894 44.0322 5.90164C44.2994 6.14435 44.6685 6.25932 45.1648 6.25932C45.3175 6.25932 45.4575 6.24654 45.5975 6.221C45.7375 6.19545 45.8775 6.15713 46.0047 6.10603C46.2592 6.00384 46.5265 5.83777 46.8065 5.59507C46.8319 5.79945 46.8828 5.99106 46.9592 6.14435H47.7482C47.6591 5.97829 47.5955 5.79945 47.5573 5.60784C47.5318 5.44178 47.5191 4.99468 47.5191 4.29211ZM46.7556 4.20269C46.7556 4.53481 46.7174 4.7903 46.6283 4.95636C46.5265 5.17352 46.3611 5.35236 46.132 5.4801C45.9793 5.56952 45.8011 5.63339 45.6102 5.65894C45.5339 5.67171 45.4448 5.67171 45.3557 5.67171C45.063 5.67171 44.8339 5.60784 44.694 5.46732C44.5412 5.33958 44.4649 5.16075 44.4649 4.96913C44.4649 4.84139 44.5031 4.71365 44.5667 4.61146C44.6303 4.49649 44.7321 4.41985 44.8594 4.36875C44.9866 4.31765 45.203 4.26656 45.5211 4.21546L45.6102 4.20269C46.1193 4.12604 46.501 4.03662 46.7556 3.93443V4.20269Z" fill="#A3B3DD"/>
<path d="M70.4767 1.59677H70.4639C69.8531 1.59677 69.3568 1.81393 68.975 2.2227C68.5932 2.64425 68.4023 3.21908 68.4023 3.97276C68.4023 4.70088 68.5932 5.26294 68.975 5.65894C69.3441 6.05493 69.8404 6.24655 70.4639 6.25932H70.5148C71.0366 6.25932 71.4566 6.13158 71.7874 5.8761C72.1183 5.62062 72.3474 5.27571 72.4746 4.81585L71.6984 4.72643C71.5838 5.04578 71.4311 5.27571 71.2402 5.429C71.0493 5.56952 70.8075 5.64616 70.5276 5.64616H70.4639C70.1203 5.63339 69.8276 5.50565 69.5986 5.25017C69.3441 4.99468 69.2168 4.61146 69.1786 4.12604H70.4639H72.5001C72.5001 4.03663 72.5001 3.97276 72.5001 3.92166C72.5001 3.18076 72.3092 2.6187 71.9274 2.20993C71.5584 1.80116 71.0748 1.59677 70.4767 1.59677ZM70.4639 3.50011H69.2295C69.255 3.11689 69.3822 2.79754 69.624 2.5676C69.8531 2.33767 70.1331 2.2227 70.4767 2.2227H70.5021C70.8839 2.2227 71.1893 2.37599 71.4311 2.65702C71.5838 2.84863 71.6856 3.12966 71.7111 3.50011H70.4639Z" fill="#A3B3DD"/>
<path d="M91.4237 1.75006C91.271 1.85225 91.1183 2.05664 90.9401 2.37599V1.69896H90.2656V6.15713H91.0165V3.81947C91.0165 3.50011 91.0546 3.20631 91.1437 2.93805C91.1946 2.75922 91.2964 2.6187 91.4237 2.52928C91.551 2.42709 91.7037 2.37599 91.8691 2.37599C92.06 2.37599 92.2382 2.42709 92.4163 2.54206L92.6709 1.83948C92.4036 1.67342 92.1491 1.59677 91.8946 1.59677C91.7291 1.59677 91.5637 1.64787 91.4237 1.75006Z" fill="#A3B3DD"/>
<path d="M95.5343 5.4801C95.3943 5.50564 95.2797 5.50564 95.2034 5.50564C95.0888 5.50564 94.9998 5.4801 94.9489 5.45455C94.8852 5.41622 94.8471 5.36513 94.8216 5.30126C94.7834 5.25016 94.7707 5.10965 94.7707 4.89249V2.28657H95.5215V1.69896H94.7707V0.140518L94.0199 0.600386V1.71173H93.4727V2.29934H94.0199V4.85416C94.0199 5.30126 94.058 5.60784 94.109 5.74835C94.1726 5.88887 94.2744 6.00383 94.4271 6.09325C94.5798 6.18267 94.7834 6.22099 95.0634 6.22099C95.2288 6.22099 95.4197 6.19545 95.6361 6.15712L95.5343 5.4801Z" fill="#A3B3DD"/>
<path d="M50.7517 5.51842C50.6372 5.51842 50.5481 5.49287 50.4972 5.46732C50.4335 5.429 50.3954 5.3779 50.3699 5.31403C50.3445 5.25016 50.3317 5.10965 50.3317 4.89249V2.28657H51.0953V1.69896H50.3317V0.140518L49.5809 0.600386V1.71173H49.0337V2.29934H49.5809V4.85416C49.5809 5.30126 49.6064 5.60784 49.67 5.74835C49.7336 5.88887 49.8354 6.00383 49.9881 6.09325C50.1408 6.18267 50.3445 6.22099 50.6244 6.22099C50.7899 6.22099 50.9808 6.19545 51.1971 6.15712L51.0826 5.4801C50.9553 5.50564 50.8408 5.51842 50.7517 5.51842Z" fill="#A3B3DD"/>
<path d="M53.3348 1.69896H52.584V6.15712H53.3348V1.69896Z" fill="#A3B3DD"/>
<path d="M64.1013 2.12051C63.9868 1.96722 63.8213 1.83948 63.5923 1.73729C63.3632 1.63509 63.1214 1.59677 62.8541 1.59677C62.2433 1.59677 61.7724 1.83948 61.4416 2.33767V1.69896H60.7671V6.15713H61.5179V3.73005C61.5179 3.15521 61.6325 2.77199 61.8615 2.5676C62.0906 2.36322 62.3706 2.26102 62.6887 2.26102C62.8923 2.26102 63.0705 2.31212 63.2105 2.40154C63.3632 2.49096 63.465 2.6187 63.5159 2.75922C63.5795 2.9125 63.605 3.14244 63.605 3.44902V6.1699H64.3558V3.42347C64.3558 3.07857 64.3431 2.82309 64.3176 2.68257C64.2922 2.46541 64.2158 2.2738 64.1013 2.12051Z" fill="#A3B3DD"/>
<path d="M53.3348 0H52.584V0.868639H53.3348V0Z" fill="#A3B3DD"/>
<path d="M57.0509 1.59677C56.5037 1.59677 56.0329 1.76283 55.6511 2.09496C55.1929 2.49096 54.9639 3.10412 54.9639 3.93443C54.9639 4.68811 55.1548 5.26294 55.5365 5.65894C55.9183 6.06771 56.4274 6.25932 57.0382 6.25932C57.42 6.25932 57.789 6.1699 58.1072 5.99106C58.4381 5.81223 58.6799 5.55675 58.858 5.22462C59.0362 4.89249 59.1125 4.4454 59.1125 3.87056C59.1125 3.16799 58.9216 2.60593 58.5271 2.20993C58.1581 1.80116 57.6618 1.59677 57.0509 1.59677ZM57.9799 5.21184C57.7254 5.49287 57.42 5.64616 57.0509 5.64616C56.6819 5.64616 56.3637 5.50565 56.1219 5.21184C55.8674 4.93081 55.7529 4.49649 55.7529 3.93443C55.7529 3.3596 55.8801 2.93805 56.1219 2.65702C56.3765 2.37599 56.6819 2.23548 57.0509 2.23548C57.42 2.23548 57.7254 2.37599 57.9799 2.65702C58.2344 2.93805 58.349 3.3596 58.349 3.90888C58.349 4.49649 58.2344 4.93081 57.9799 5.21184Z" fill="#A3B3DD"/>
<path d="M130.41 32.459C130.257 32.4718 130.091 32.4846 129.939 32.4973C119.313 33.2766 108.737 35.0138 98.5057 37.888C92.219 39.6125 86.0978 41.8352 80.0021 44.109C78.2459 44.7094 76.5025 45.4375 74.6954 45.8718C74.3645 45.9357 74.0209 45.974 73.6773 45.974C73.5246 45.974 73.3719 45.9613 73.2065 45.9485C72.8501 45.1437 73.0792 44.1218 72.3538 43.4958C71.603 42.7039 70.5086 42.4484 69.4268 42.4484C69.0451 42.4484 68.6633 42.4867 68.2942 42.525C64.2728 42.9338 60.4551 44.3262 56.5991 45.4503C45.4002 48.9376 34.2778 52.8209 22.6971 55.0309C16.2705 56.2955 9.74212 57.0875 3.20098 57.4963C2.39924 57.6112 1.39389 57.5985 0.8594 58.2627C0.477622 58.8631 1.03756 59.6806 1.67386 59.8595C2.06837 59.9617 2.4756 60 2.88283 60C3.27733 60 3.67184 59.9617 4.07907 59.9361C4.47357 59.8978 4.8808 59.8723 5.27531 59.8723C5.36439 59.8723 5.44074 59.8723 5.52983 59.8723C14.2217 59.4635 22.7862 57.8156 31.1981 55.7462C40.4117 53.4724 49.3835 50.4194 58.3425 47.3536C61.2822 46.3828 64.2092 45.3736 67.1998 44.5561C67.8616 44.4028 68.5615 44.2751 69.2487 44.2751C69.5414 44.2751 69.8468 44.3006 70.1395 44.3517C70.6613 44.7477 70.7249 45.4503 70.8267 46.0379C70.8521 46.5744 70.9921 47.1109 71.4121 47.4814C71.9466 48.0307 72.6974 48.2606 73.461 48.2606C73.9318 48.2606 74.4154 48.1712 74.8354 47.9923C77.5587 47.162 80.1294 45.9229 82.7764 44.8627C89.7884 41.9119 96.8513 38.9866 104.296 37.1982C112.873 35.0266 121.578 33.251 130.41 32.459Z" fill="#A3B3DD"/>
<path d="M127.903 0H127.152L126.312 2.41431L125.434 0H124.709V3.92165H125.129V0.625931H125.141L126.02 3.09133H126.529L127.407 0.549287H127.419V3.90888H127.916V0H127.903ZM124.352 0H120.751V0.447094H122.253V3.90888H122.851V0.447094H124.352V0Z" fill="#A3B3DD"/>
<path d="M96.9459 55.7357H94.391V49.4683C94.391 49.0203 94.4228 48.6454 94.4866 48.3437L92.3006 48.8374L92 47.2054L94.391 46.2729H96.9459V55.7357Z" fill="#A3B3DD"/>
<path d="M102.455 46.0809C103.894 46.0809 104.896 46.442 105.461 47.1643C106.034 47.8866 106.321 49.1666 106.321 51.0043C106.321 52.842 106.034 54.122 105.461 54.8443C104.896 55.5666 103.894 55.9277 102.455 55.9277C101.025 55.9277 100.027 55.5666 99.4628 54.8443C98.898 54.122 98.6157 52.842 98.6157 51.0043C98.6157 49.1666 98.898 47.8866 99.4628 47.1643C100.027 46.442 101.025 46.0809 102.455 46.0809ZM102.441 48.042C102.086 48.042 101.822 48.1151 101.649 48.2614C101.476 48.4077 101.348 48.6911 101.266 49.1117C101.184 49.5231 101.143 50.154 101.143 51.0043C101.143 51.8546 101.184 52.49 101.266 52.9106C101.348 53.322 101.476 53.6009 101.649 53.7471C101.822 53.8934 102.086 53.9666 102.441 53.9666C102.815 53.9666 103.088 53.8934 103.261 53.7471C103.443 53.6009 103.575 53.322 103.657 52.9106C103.739 52.49 103.78 51.8546 103.78 51.0043C103.78 50.154 103.739 49.5231 103.657 49.1117C103.575 48.6911 103.443 48.4077 103.261 48.2614C103.088 48.1151 102.815 48.042 102.441 48.042Z" fill="#A3B3DD"/>
<path d="M118.405 46.2729V55.7357H115.836V48.0283H114.976C114.484 48.0283 114.224 48.2614 114.197 48.7277C113.996 51.1323 113.755 52.7551 113.473 53.5963C113.181 54.5289 112.739 55.1643 112.147 55.5026C111.555 55.8317 110.822 55.9277 109.948 55.7906L109.77 53.802C110.134 53.7471 110.421 53.6603 110.631 53.5414C110.84 53.4134 111 53.1986 111.109 52.8969C111.391 52.1106 111.605 50.6477 111.751 48.5083C111.86 47.018 112.648 46.2729 114.115 46.2729H118.405Z" fill="#A3B3DD"/>
<path d="M126.743 53.7746L126.866 55.626C125.982 55.7266 124.425 55.7769 122.193 55.7769C121.556 55.7769 121.037 55.594 120.636 55.2283C120.244 54.8534 120.048 54.3597 120.048 53.7471V48.2614C120.048 47.6489 120.244 47.1597 120.636 46.794C121.037 46.4191 121.556 46.2317 122.193 46.2317C124.425 46.2317 125.982 46.282 126.866 46.3826L126.743 48.234H123.218C122.817 48.234 122.617 48.4306 122.617 48.8237V49.9757H126.251V51.7449H122.617V53.1849C122.617 53.578 122.817 53.7746 123.218 53.7746H126.743Z" fill="#A3B3DD"/>
<path d="M135.499 48.2614H132.78V55.7357H130.212V48.2614H127.507V46.2729H135.499V48.2614Z" fill="#A3B3DD"/>
</svg>
