<svg width="52" height="52" viewBox="0 0 52 52" fill="none" xmlns="http://www.w3.org/2000/svg">
<rect width="52" height="52" rx="26" fill="white"/>
<path d="M44.3731 7.60313C34.2361 -2.53387 17.7411 -2.53487 7.60313 7.60313C-2.53487 17.7411 -2.53387 34.2351 7.60313 44.3731C17.7401 54.5111 34.2351 54.5111 44.3731 44.3731C54.5101 34.2351 54.5101 17.7401 44.3731 7.60313ZM36.2411 36.2411C35.4601 37.0221 34.1941 37.0221 33.4131 36.2411L25.9881 28.8161L18.2101 36.5941C17.4291 37.3751 16.1631 37.3751 15.3821 36.5941C14.6011 35.8131 14.6011 34.5471 15.3821 33.7661L23.1601 25.9881L15.7351 18.5631C14.9541 17.7821 14.9541 16.5151 15.7351 15.7351C16.5161 14.9541 17.7821 14.9541 18.5631 15.7351L25.9881 23.1601L33.0591 16.0891C33.8401 15.3081 35.1061 15.3081 35.8871 16.0891C36.6681 16.8701 36.6681 18.1361 35.8871 18.9171L28.8161 25.9881L36.2411 33.4131C37.0221 34.1941 37.0221 35.4601 36.2411 36.2411Z" fill="black"/>
</svg>
