<svg width="40" height="40" viewBox="0 0 40 40" fill="none" xmlns="http://www.w3.org/2000/svg">
<rect width="40" height="40" rx="2" transform="matrix(-1 0 0 1 40 0)" fill="#F7F7F7"/>
<path d="M29.9617 19.7508C29.6183 19.7508 29.3435 20.0256 29.3435 20.369V25.993C29.3435 27.5227 28.0978 28.7638 26.5727 28.7638H13.0073C11.4777 28.7638 10.2365 27.5181 10.2365 25.993V20.2775C10.2365 19.934 9.96176 19.6592 9.61827 19.6592C9.27479 19.6592 9 19.934 9 20.2775V25.993C9 28.2051 10.7999 30.0004 13.0073 30.0004H26.5727C28.7847 30.0004 30.58 28.2005 30.58 25.993V20.369C30.58 20.0301 30.3052 19.7508 29.9617 19.7508Z" fill="#7D828F"/>
<path d="M19.3549 25.0904C19.4739 25.2095 19.6342 25.2736 19.7899 25.2736C19.9457 25.2736 20.106 25.2141 20.225 25.0904L24.1545 21.161C24.3972 20.9182 24.3972 20.529 24.1545 20.2862C23.9118 20.0435 23.5225 20.0435 23.2798 20.2862L20.4082 23.1623V10.6183C20.4082 10.2748 20.1334 10 19.7899 10C19.4465 10 19.1717 10.2748 19.1717 10.6183V23.1623L16.2956 20.2862C16.0528 20.0435 15.6635 20.0435 15.4208 20.2862C15.1781 20.529 15.1781 20.9182 15.4208 21.161L19.3549 25.0904Z" fill="#7D828F"/>
</svg>
