<svg width="15" height="15" viewBox="0 0 15 15" fill="none" xmlns="http://www.w3.org/2000/svg">
<g clip-path="url(#clip0)">
<path d="M8.22434 0.777965L9.91615 4.206C10.0338 4.44442 10.2613 4.60963 10.5244 4.6478L14.3076 5.19755C14.9703 5.29392 15.2347 6.10807 14.7553 6.57521L12.0178 9.24355C11.8276 9.42909 11.7406 9.69661 11.7857 9.9585L12.4318 13.7263C12.5451 14.3862 11.8523 14.8894 11.2597 14.578L7.8761 12.7992C7.6408 12.6757 7.35951 12.6757 7.12422 12.7992L3.74061 14.578C3.148 14.8897 2.45526 14.3862 2.56852 13.7263L3.21464 9.9585C3.2597 9.69661 3.17272 9.42909 2.98248 9.24355L0.244994 6.57521C-0.234355 6.10775 0.0300376 5.29361 0.692741 5.19755L4.47591 4.6478C4.73905 4.60963 4.96652 4.44442 5.08417 4.206L6.77597 0.777965C7.07197 0.177527 7.92804 0.177527 8.22434 0.777965Z" fill="#ED8A19"/>
</g>
<defs>
<clipPath id="clip0">
<rect width="15" height="15" fill="white"/>
</clipPath>
</defs>
</svg>
