<svg width="50" height="50" viewBox="0 0 50 50" fill="none" xmlns="http://www.w3.org/2000/svg">
<path d="M31.3381 1.3453L31.3382 1.3453C37.6575 3.03851 42.937 7.08977 46.2081 12.7554C49.4792 18.4212 50.348 25.0189 48.6547 31.3384C46.9615 37.6577 42.9102 42.9372 37.2446 46.2083C33.4698 48.3877 29.2824 49.5 25.0406 49.5C22.9137 49.5 20.7726 49.2204 18.6616 48.6547C12.3424 46.9615 7.0627 42.9103 3.7917 37.2446L3.35869 37.4946L3.7917 37.2446C0.520605 31.579 -0.348049 24.9811 1.34517 18.6618L0.862205 18.5324L1.34517 18.6618C3.03839 12.3425 7.08945 7.06302 12.7553 3.79183L12.5053 3.35882L12.7553 3.79183C18.4212 0.520537 25.0189 -0.34811 31.3381 1.3453Z" stroke="white"/>
<path d="M33.6984 24.0667L33.6984 24.0667L20.9828 16.7252L20.9828 16.7252C20.4628 16.425 19.8478 16.425 19.3276 16.7252L33.6984 24.0667ZM33.6984 24.0667C34.2184 24.3669 34.5259 24.8995 34.5259 25.4999C34.5259 26.1005 34.2184 26.6332 33.6984 26.9335L20.9828 34.2748C20.7207 34.4261 20.4366 34.5001 20.1551 34.5001C19.8734 34.5001 19.5896 34.4262 19.3277 34.2749L19.3276 34.2749M33.6984 24.0667L19.3276 34.2749M19.3276 34.2749C18.8074 33.9746 18.4999 33.4419 18.4999 32.8415V18.1586C18.4999 17.5581 18.8075 17.0254 19.3275 16.7252L19.3276 34.2749Z" stroke="white"/>
</svg>
