<svg width="40" height="40" viewBox="0 0 40 40" fill="none" xmlns="http://www.w3.org/2000/svg">
<path d="M39.414 0.585984C38.6327 -0.195328 37.3671 -0.195328 36.586 0.585984L19.9999 17.172L3.41405 0.586173C2.63273 -0.195139 1.36711 -0.195139 0.585984 0.586173C-0.195328 1.36748 -0.195328 2.63311 0.585984 3.41423L17.1718 20.0001L0.585984 36.586C-0.195328 37.3673 -0.195328 38.6329 0.585984 39.414C0.976546 39.8046 1.48842 40 2.00011 40C2.5118 40 3.02348 39.8046 3.41423 39.414L19.9999 22.8282L36.5858 39.414C36.9763 39.8046 37.4882 40 37.9999 40C38.5116 40 39.0233 39.8046 39.414 39.414C40.1953 38.6327 40.1953 37.3671 39.414 36.586L22.828 20.0001L39.4138 3.41423C40.1951 2.63292 40.1951 1.3673 39.414 0.585984Z" fill="white"/>
</svg>
